<?xml version="1.0" encoding="UTF-8"?>
<svg width="700pt" height="700pt" version="1.1" viewBox="0 0 700 700" xmlns="http://www.w3.org/2000/svg">
 <path d="m505.77 366.38-8.7383 18.551h-0.003906c-5.5 10.508-13.508 19.5-23.305 26.18l-40.492 27.496v0.003907c-11.887 8.0977-25.941 12.422-40.328 12.402h-77.645l-3.0625 3.3711 3.1484 3.6367v0.003906c3.4648 3.9961 3.6562 9.8711 0.46094 14.086l-19.293 25.473c-1.793 2.3711-4.4531 3.9336-7.3984 4.3438-2.9414 0.41016-5.9258-0.37109-8.2969-2.1641-2.3672-1.7969-3.9258-4.457-4.332-7.4023-0.40234-2.9453 0.37891-5.9297 2.1758-8.2969l13.812-18.242-32.703-37.777c-1.9531-2.2461-2.9297-5.1719-2.7227-8.1406 0.21094-2.9688 1.5938-5.7305 3.8398-7.6758 2.25-1.9492 5.1836-2.918 8.1484-2.7031 2.9688 0.21875 5.7266 1.6094 7.668 3.8633l20.723 23.938 4.5859-5.0508c2.125-2.332 5.1328-3.6602 8.2891-3.6641h82.602c9.8945 0.015625 19.562-2.957 27.738-8.5312l40.5-27.496c6.6484-4.5195 12.094-10.59 15.871-17.684l8.5-18.059h-0.003907c1.4375-3.0664 0.24219-6.7188-2.7344-8.3359-2.6289-1.4297-5.7266-1.7227-8.582-0.82031-2.8516 0.90234-5.2148 2.9297-6.543 5.6133l-8.1172 16.406h0.003906c-1.5156 3.0508-4.332 5.25-7.6562 5.9805l-15.617 3.3984h-0.003907c0.77344 7.8516-1.8164 15.66-7.1289 21.492-5.3086 5.832-12.84 9.1406-20.73 9.1055h-73.203c-6.1836 0-11.199-5.0156-11.199-11.203 0-6.1836 5.0156-11.199 11.199-11.199h73.207c1.7305-0.003907 3.3633-0.78125 4.457-2.125 1.0898-1.3438 1.5156-3.1055 1.1641-4.7969-0.24609-1.125-0.83203-2.1484-1.6719-2.9336l-0.12891-0.13672v-0.003906c-0.87109-0.78516-1.957-1.2891-3.1211-1.4414l-47.863-5.8945v-0.003906c-2.3281-0.28516-4.5078-1.293-6.2344-2.8867l-5.2617-4.8672h0.003906c-5.3906-5-12.469-7.7734-19.82-7.7656h-33.492c-9.0469 0.03125-17.574 4.2266-23.121 11.375l-23.309 30.23c-0.28906 0.28516-0.59766 0.55078-0.91797 0.80078-0.22266 0.32031-0.46484 0.63281-0.72266 0.92969-0.32422 0.20703-0.66406 0.39844-1.0117 0.57031-1.2695 0.85547-2.6953 1.4609-4.1953 1.7773-0.41797 0.078126-0.83984 0.12891-1.2656 0.15625-1.0508 0.085938-2.1133 0.015626-3.1445-0.20312-0.30469-0.066407-0.58984-0.14844-0.88672-0.23828-1.1367-0.34375-2.2109-0.875-3.1758-1.5664-0.12109-0.085938-0.26562-0.097656-0.38281-0.19141-0.11719-0.089844-0.16797-0.23438-0.28516-0.32812-0.51562-0.32812-0.99609-0.70312-1.4453-1.1172l-7.207-8.3242-13.969 17.238c-3.8945 4.8086-10.953 5.5508-15.758 1.6523-4.8086-3.8945-5.5508-10.953-1.6523-15.762l22.391-27.629-0.003906 0.003907c2.0898-2.5781 5.2109-4.0938 8.5234-4.1484 3.3125-0.050781 6.4805 1.3672 8.6484 3.875l7.0039 8.0938 15.027-19.488v-0.003906c9.7969-12.637 24.871-20.051 40.859-20.102h33.492c12.988-0.019531 25.5 4.8828 35.023 13.715l2.6133 2.418 44.273 5.457c4.5273 0.65234 8.8242 2.4141 12.504 5.1289l17.508-3.8086 5.7188-11.57h0.003906c4.0273-8.1406 11.195-14.293 19.855-17.039 8.6602-2.7422 18.066-1.8438 26.047 2.4922 6.4531 3.5117 11.32 9.3594 13.605 16.34 2.2852 6.9844 1.8164 14.574-1.3086 21.223zm-167.86-177.41 9.1836 8.7344c6.7188 6.2734 16.129 15.008 16.129 21.277 0.023438 3.5391-1.4023 6.9297-3.9492 9.3828-2.5469 2.4531-5.9883 3.7578-9.5195 3.6016-3.5312-0.15234-6.8477-1.75-9.1719-4.4141-2.3203-2.668-3.4492-6.168-3.1172-9.6875 0.39062-6.1523-4.168-11.508-10.305-12.098-2.9844-0.30078-5.9648 0.625-8.2461 2.5703-2.2852 1.9453-3.6758 4.7383-3.8516 7.7344 0 0.22266-0.22266 2.6875-0.22266 2.9102-0.011719 7.4062 2.3242 14.625 6.668 20.621 4.3477 5.9961 10.48 10.461 17.523 12.758v5.6016-0.003906c0 6.1875 5.0156 11.199 11.199 11.199 6.1875 0 11.199-5.0117 11.199-11.199v-5.6016 0.003907c7.043-2.2969 13.176-6.7617 17.523-12.758s6.6797-13.215 6.6719-20.621c-1.4766-13.449-8.4492-25.691-19.266-33.824-1.3438-1.3438-2.6875-2.6875-4.0312-3.8086l-9.1836-8.7344c-6.7188-6.2734-16.129-15.008-16.129-21.281-0.023437-3.5352 1.4023-6.9258 3.9492-9.3789s5.9883-3.7578 9.5195-3.6016c3.5312 0.15234 6.8477 1.75 9.1719 4.4141 2.3203 2.6641 3.4492 6.168 3.1172 9.6875-0.39063 6.1523 4.168 11.508 10.305 12.098 2.9844 0.30078 5.9648-0.62891 8.2461-2.5742 2.2852-1.9453 3.6758-4.7383 3.8516-7.7305 0-0.22266 0.22266-2.6875 0.22266-2.9102v-0.003906c0.011718-7.4023-2.3242-14.621-6.668-20.617-4.3477-6-10.48-10.465-17.523-12.758v-5.6016 0.003907c0-6.1875-5.0156-11.203-11.199-11.203-6.1875 0-11.199 5.0156-11.199 11.203v5.6016-0.003906c-7.043 2.293-13.176 6.7578-17.523 12.758-4.3477 5.9961-6.6797 13.215-6.6719 20.617 1.4766 13.453 8.4492 25.695 19.266 33.824 1.3438 1.3477 2.6875 2.6914 4.0312 3.8125zm-115.13-3.7617c0-33.742 13.406-66.102 37.262-89.961 23.859-23.859 56.223-37.262 89.965-37.262 33.742 0 66.102 13.402 89.961 37.262 23.859 23.859 37.262 56.219 37.262 89.961s-13.402 66.105-37.262 89.965-56.219 37.262-89.961 37.262c-33.73-0.039063-66.07-13.453-89.922-37.305-23.852-23.852-37.266-56.191-37.305-89.922zm22.398 0h0.003906c0 27.805 11.043 54.465 30.699 74.125 19.66 19.656 46.324 30.703 74.125 30.703 27.801 0 54.465-11.047 74.121-30.703 19.66-19.66 30.703-46.32 30.703-74.125 0-27.801-11.043-54.461-30.703-74.121-19.656-19.66-46.32-30.703-74.121-30.703-27.793 0.03125-54.438 11.086-74.09 30.738-19.652 19.648-30.707 46.297-30.734 74.086z"/>
</svg>
