<?xml version="1.0" encoding="UTF-8"?>
<svg width="700pt" height="700pt" version="1.1" viewBox="0 0 700 700" xmlns="http://www.w3.org/2000/svg" xmlns:xlink="http://www.w3.org/1999/xlink">
 <defs>
  <symbol id="g" overflow="visible">
   <path d="m3.6562-0.21875c-0.1875 0.09375-0.38672 0.16797-0.59375 0.21875-0.19922 0.050781-0.40625 0.078125-0.625 0.078125-0.66797 0-1.1992-0.17969-1.5938-0.54688-0.38672-0.375-0.57812-0.87891-0.57812-1.5156 0-0.64453 0.19141-1.1484 0.57812-1.5156 0.39453-0.375 0.92578-0.5625 1.5938-0.5625 0.21875 0 0.42578 0.027344 0.625 0.078125 0.20703 0.054687 0.40625 0.125 0.59375 0.21875v0.82812c-0.1875-0.125-0.375-0.21875-0.5625-0.28125-0.17969-0.0625-0.37109-0.09375-0.57812-0.09375-0.36719 0-0.65625 0.12109-0.875 0.35938-0.21094 0.23047-0.3125 0.55469-0.3125 0.96875 0 0.40625 0.10156 0.73047 0.3125 0.96875 0.21875 0.23047 0.50781 0.34375 0.875 0.34375 0.20703 0 0.39844-0.023437 0.57812-0.078125 0.1875-0.0625 0.375-0.16016 0.5625-0.29688z"/>
  </symbol>
  <symbol id="d" overflow="visible">
   <path d="m2.6875-2.1719c-0.085938-0.039063-0.16797-0.070313-0.25-0.09375-0.085938-0.019531-0.16797-0.03125-0.25-0.03125-0.25 0-0.44531 0.085937-0.57812 0.25-0.125 0.15625-0.1875 0.38281-0.1875 0.67188v1.375h-0.96875v-2.9844h0.96875v0.48438c0.11328-0.19531 0.25-0.33594 0.40625-0.42188 0.16406-0.09375 0.35938-0.14062 0.57812-0.14062h0.10938c0.039063 0 0.09375 0.007812 0.15625 0.015625z"/>
  </symbol>
  <symbol id="c" overflow="visible">
   <path d="m3.4375-1.5v0.26562h-2.2344c0.03125 0.23047 0.11328 0.40234 0.25 0.51562 0.13281 0.10547 0.32812 0.15625 0.57812 0.15625 0.20703 0 0.41406-0.023438 0.625-0.078125 0.20703-0.0625 0.42188-0.15625 0.64062-0.28125v0.73438c-0.21875 0.09375-0.44531 0.16406-0.67188 0.20312-0.23047 0.039062-0.45312 0.0625-0.67188 0.0625-0.54297 0-0.96484-0.13281-1.2656-0.40625-0.30469-0.28125-0.45312-0.67188-0.45312-1.1719 0-0.47656 0.14453-0.85938 0.4375-1.1406 0.30078-0.28125 0.70703-0.42188 1.2188-0.42188 0.46875 0 0.84375 0.14062 1.125 0.42188s0.42188 0.66406 0.42188 1.1406zm-0.96875-0.32812c0-0.17578-0.058594-0.31641-0.17188-0.42188-0.10547-0.11328-0.24219-0.17188-0.40625-0.17188-0.1875 0-0.33984 0.054687-0.45312 0.15625-0.11719 0.10547-0.1875 0.25-0.21875 0.4375z"/>
  </symbol>
  <symbol id="b" overflow="visible">
   <path d="m1.7969-1.3438c-0.19922 0-0.35156 0.039062-0.45312 0.10938-0.09375 0.0625-0.14062 0.16406-0.14062 0.29688 0 0.11719 0.035156 0.21094 0.10938 0.28125 0.082031 0.0625 0.19531 0.09375 0.34375 0.09375 0.17578 0 0.32812-0.0625 0.45312-0.1875s0.1875-0.28516 0.1875-0.48438v-0.10938zm1.4688-0.35938v1.7031h-0.96875v-0.4375c-0.125 0.17969-0.27344 0.30859-0.4375 0.39062-0.15625 0.082031-0.35156 0.125-0.57812 0.125-0.3125 0-0.57031-0.085938-0.76562-0.26562-0.1875-0.1875-0.28125-0.42188-0.28125-0.70312 0-0.35156 0.11719-0.61328 0.35938-0.78125 0.23828-0.16406 0.61719-0.25 1.1406-0.25h0.5625v-0.0625c0-0.15625-0.0625-0.26562-0.1875-0.32812-0.11719-0.070312-0.29688-0.10938-0.54688-0.10938-0.21094 0-0.40234 0.023437-0.57812 0.0625-0.17969 0.042969-0.33984 0.10156-0.48438 0.17188v-0.71875c0.19531-0.050781 0.39844-0.085938 0.60938-0.10938 0.20703-0.03125 0.41406-0.046875 0.625-0.046875 0.53906 0 0.92969 0.10938 1.1719 0.32812 0.23828 0.21094 0.35938 0.55469 0.35938 1.0312z"/>
  </symbol>
  <symbol id="a" overflow="visible">
   <path d="m1.5-3.8438v0.85938h0.98438v0.67188h-0.98438v1.2812c0 0.13672 0.023438 0.23047 0.078125 0.28125 0.0625 0.042969 0.17578 0.0625 0.34375 0.0625h0.48438v0.6875h-0.8125c-0.38672 0-0.65625-0.078125-0.8125-0.23438s-0.23438-0.42188-0.23438-0.79688v-1.2812h-0.46875v-0.67188h0.46875v-0.85938z"/>
  </symbol>
  <symbol id="j" overflow="visible">
   <path d="m2.5-2.5469v-1.6094h0.95312v4.1562h-0.95312v-0.4375c-0.13672 0.17969-0.28125 0.30859-0.4375 0.39062-0.15625 0.082031-0.33984 0.125-0.54688 0.125-0.375 0-0.68359-0.14453-0.92188-0.4375-0.23047-0.28906-0.34375-0.67188-0.34375-1.1406 0-0.45703 0.11328-0.83203 0.34375-1.125 0.23828-0.28906 0.54688-0.4375 0.92188-0.4375 0.19531 0 0.375 0.042969 0.53125 0.125 0.16406 0.085938 0.31641 0.21484 0.45312 0.39062zm-0.64062 1.9375c0.20703 0 0.36328-0.070313 0.46875-0.21875 0.11328-0.15625 0.17188-0.37891 0.17188-0.67188 0-0.28125-0.058594-0.49219-0.17188-0.64062-0.10547-0.15625-0.26172-0.23438-0.46875-0.23438-0.19922 0-0.35547 0.078125-0.46875 0.23438-0.10547 0.14844-0.15625 0.35938-0.15625 0.64062 0 0.29297 0.050781 0.51562 0.15625 0.67188 0.11328 0.14844 0.26953 0.21875 0.46875 0.21875z"/>
  </symbol>
  <symbol id="i" overflow="visible">
   <path d="m2.0469-0.60938c0.20703 0 0.36328-0.070313 0.46875-0.21875 0.11328-0.15625 0.17188-0.37891 0.17188-0.67188 0-0.28125-0.058594-0.49219-0.17188-0.64062-0.10547-0.15625-0.26172-0.23438-0.46875-0.23438-0.19922 0-0.35547 0.078125-0.46875 0.23438-0.10547 0.14844-0.15625 0.35938-0.15625 0.64062 0 0.29297 0.050781 0.51562 0.15625 0.67188 0.11328 0.14844 0.26953 0.21875 0.46875 0.21875zm-0.625-1.9375c0.125-0.17578 0.26562-0.30469 0.42188-0.39062 0.16406-0.082031 0.35156-0.125 0.5625-0.125 0.36328 0 0.66406 0.14844 0.90625 0.4375 0.23828 0.29297 0.35938 0.66797 0.35938 1.125 0 0.46875-0.12109 0.85156-0.35938 1.1406-0.24219 0.29297-0.54297 0.4375-0.90625 0.4375-0.21094 0-0.39844-0.042969-0.5625-0.125-0.15625-0.082031-0.29688-0.21094-0.42188-0.39062v0.4375h-0.96875v-4.1562h0.96875z"/>
  </symbol>
  <symbol id="h" overflow="visible">
   <path d="m0.0625-2.9844h0.95312l0.8125 2.0156 0.6875-2.0156h0.95312l-1.2656 3.2656c-0.125 0.33203-0.27344 0.56641-0.4375 0.70312-0.16797 0.13281-0.39062 0.20312-0.67188 0.20312h-0.54688v-0.64062h0.29688c0.16406 0 0.28516-0.027344 0.35938-0.078125 0.070313-0.054688 0.12891-0.14062 0.17188-0.26562l0.03125-0.09375z"/>
  </symbol>
  <symbol id="f" overflow="visible">
   <path d="m3.4688-1.8281v1.8281h-0.96875v-1.3906c0-0.25781-0.007812-0.4375-0.015625-0.53125-0.011719-0.10156-0.03125-0.17578-0.0625-0.21875-0.03125-0.0625-0.085937-0.10938-0.15625-0.14062-0.0625-0.039062-0.13281-0.0625-0.20312-0.0625-0.21094 0-0.37109 0.078125-0.48438 0.23438-0.10547 0.15625-0.15625 0.37109-0.15625 0.64062v1.4688h-0.96875v-4.1562h0.96875v1.6094c0.13281-0.17578 0.28516-0.30469 0.45312-0.39062 0.16406-0.082031 0.34375-0.125 0.53125-0.125 0.34375 0 0.60156 0.10938 0.78125 0.32812 0.1875 0.21094 0.28125 0.51172 0.28125 0.90625z"/>
  </symbol>
  <symbol id="s" overflow="visible">
   <path d="m1.4219-0.4375v1.5781h-0.96875v-4.125h0.96875v0.4375c0.125-0.17578 0.26562-0.30469 0.42188-0.39062 0.16406-0.082031 0.35156-0.125 0.5625-0.125 0.36328 0 0.66406 0.14844 0.90625 0.4375 0.23828 0.29297 0.35938 0.66797 0.35938 1.125 0 0.46875-0.12109 0.85156-0.35938 1.1406-0.24219 0.29297-0.54297 0.4375-0.90625 0.4375-0.21094 0-0.39844-0.042969-0.5625-0.125-0.15625-0.082031-0.29688-0.21094-0.42188-0.39062zm0.625-1.9375c-0.19922 0-0.35547 0.078125-0.46875 0.23438-0.10547 0.14844-0.15625 0.35938-0.15625 0.64062 0 0.29297 0.050781 0.51562 0.15625 0.67188 0.11328 0.14844 0.26953 0.21875 0.46875 0.21875 0.20703 0 0.36328-0.070313 0.46875-0.21875 0.11328-0.15625 0.17188-0.37891 0.17188-0.67188 0-0.28125-0.058594-0.49219-0.17188-0.64062-0.10547-0.15625-0.26172-0.23438-0.46875-0.23438z"/>
  </symbol>
  <symbol id="r" overflow="visible">
   <path d="m2.4219-4.1562v0.625h-0.51562c-0.13672 0-0.23438 0.027344-0.29688 0.078125-0.054687 0.054687-0.078125 0.13672-0.078125 0.25v0.21875h0.82812v0.67188h-0.82812v2.3125h-0.95312v-2.3125h-0.46875v-0.67188h0.46875v-0.21875c0-0.32031 0.085937-0.5625 0.26562-0.71875 0.1875-0.15625 0.47266-0.23438 0.85938-0.23438z"/>
  </symbol>
  <symbol id="e" overflow="visible">
   <path d="m1.875-2.375c-0.21094 0-0.37109 0.078125-0.48438 0.23438-0.10547 0.14844-0.15625 0.35938-0.15625 0.64062 0 0.29297 0.050781 0.51562 0.15625 0.67188 0.11328 0.14844 0.27344 0.21875 0.48438 0.21875 0.20703 0 0.36719-0.070313 0.48438-0.21875 0.11328-0.15625 0.17188-0.37891 0.17188-0.67188 0-0.28125-0.058594-0.49219-0.17188-0.64062-0.11719-0.15625-0.27734-0.23438-0.48438-0.23438zm0-0.6875c0.51953 0 0.92188 0.14062 1.2031 0.42188 0.28906 0.27344 0.4375 0.65234 0.4375 1.1406 0 0.5-0.14844 0.89062-0.4375 1.1719-0.28125 0.27344-0.68359 0.40625-1.2031 0.40625-0.51172 0-0.91406-0.13281-1.2031-0.40625-0.29297-0.28125-0.4375-0.67188-0.4375-1.1719 0-0.48828 0.14453-0.86719 0.4375-1.1406 0.28906-0.28125 0.69141-0.42188 1.2031-0.42188z"/>
  </symbol>
  <symbol id="q" overflow="visible">
   <path d="m3.2344-2.5c0.11328-0.17578 0.25391-0.3125 0.42188-0.40625 0.16406-0.10156 0.35156-0.15625 0.5625-0.15625 0.33203 0 0.58594 0.10938 0.76562 0.32812 0.1875 0.21094 0.28125 0.51172 0.28125 0.90625v1.8281h-0.96875v-1.5625c0.007813-0.019531 0.015625-0.039062 0.015625-0.0625v-0.10938c0-0.21875-0.03125-0.375-0.09375-0.46875s-0.16406-0.14062-0.29688-0.14062c-0.1875 0-0.33594 0.078125-0.4375 0.23438-0.09375 0.14844-0.14062 0.35938-0.14062 0.64062v1.4688h-0.96875v-1.5625c0-0.33203-0.03125-0.54688-0.09375-0.64062-0.054688-0.09375-0.15234-0.14062-0.29688-0.14062-0.17969 0-0.32031 0.078125-0.42188 0.23438-0.09375 0.14844-0.14062 0.35938-0.14062 0.64062v1.4688h-0.96875v-2.9844h0.96875v0.4375c0.11328-0.17578 0.24219-0.30469 0.39062-0.39062 0.15625-0.082031 0.32812-0.125 0.51562-0.125 0.20703 0 0.39062 0.054688 0.54688 0.15625 0.15625 0.09375 0.27344 0.23047 0.35938 0.40625z"/>
  </symbol>
  <symbol id="p" overflow="visible">
   <path d="m0.5-3.9844h1.1562l1.4375 2.7344v-2.7344h0.98438v3.9844h-1.1562l-1.4375-2.7344v2.7344h-0.98438z"/>
  </symbol>
  <symbol id="o" overflow="visible">
   <path d="m0.42188-1.1719v-1.8125h0.96875v0.29688 0.60938 0.48438c0 0.24219 0.003906 0.41797 0.015625 0.53125 0.007812 0.10547 0.03125 0.17969 0.0625 0.21875 0.039062 0.0625 0.09375 0.11719 0.15625 0.15625 0.0625 0.03125 0.13281 0.046875 0.21875 0.046875 0.19531 0 0.35156-0.078125 0.46875-0.23438 0.11328-0.15625 0.17188-0.36719 0.17188-0.64062v-1.4688h0.95312v2.9844h-0.95312v-0.4375c-0.14844 0.17969-0.30469 0.30859-0.46875 0.39062-0.15625 0.082031-0.33594 0.125-0.53125 0.125-0.34375 0-0.60938-0.10156-0.79688-0.3125-0.17969-0.21875-0.26562-0.53125-0.26562-0.9375z"/>
  </symbol>
  <symbol id="n" overflow="visible">
   <path d="m3.4688-1.8281v1.8281h-0.96875v-1.3906c0-0.25781-0.007812-0.4375-0.015625-0.53125-0.011719-0.10156-0.03125-0.17578-0.0625-0.21875-0.03125-0.0625-0.085937-0.10938-0.15625-0.14062-0.0625-0.039062-0.13281-0.0625-0.20312-0.0625-0.21094 0-0.37109 0.078125-0.48438 0.23438-0.10547 0.15625-0.15625 0.37109-0.15625 0.64062v1.4688h-0.96875v-2.9844h0.96875v0.4375c0.13281-0.17578 0.28516-0.30469 0.45312-0.39062 0.16406-0.082031 0.34375-0.125 0.53125-0.125 0.34375 0 0.60156 0.10938 0.78125 0.32812 0.1875 0.21094 0.28125 0.51172 0.28125 0.90625z"/>
  </symbol>
  <symbol id="m" overflow="visible">
   <path d="m0.5-3.9844h1.7031c0.50781 0 0.89844 0.11719 1.1719 0.34375 0.26953 0.21875 0.40625 0.53906 0.40625 0.95312 0 0.41797-0.13672 0.74219-0.40625 0.96875-0.27344 0.21875-0.66406 0.32812-1.1719 0.32812h-0.67188v1.3906h-1.0312zm1.0312 0.75v1.1094h0.5625c0.19531 0 0.34766-0.046875 0.45312-0.14062 0.11328-0.10156 0.17188-0.24219 0.17188-0.42188 0-0.17578-0.058594-0.3125-0.17188-0.40625-0.10547-0.09375-0.25781-0.14062-0.45312-0.14062z"/>
  </symbol>
  <symbol id="l" overflow="visible">
   <path d="m0.45312-2.9844h0.96875v2.9375c0 0.39453-0.10156 0.69531-0.29688 0.90625-0.1875 0.21875-0.46484 0.32812-0.82812 0.32812h-0.48438v-0.64062h0.17188c0.17578 0 0.29688-0.042969 0.35938-0.125 0.070312-0.074219 0.10938-0.23047 0.10938-0.46875zm0-1.1719h0.96875v0.78125h-0.96875z"/>
  </symbol>
  <symbol id="k" overflow="visible">
   <path d="m2.875-2.8906v0.76562c-0.125-0.082031-0.25781-0.14453-0.39062-0.1875-0.13672-0.039062-0.27344-0.0625-0.40625-0.0625-0.27344 0-0.48047 0.078125-0.625 0.23438-0.14844 0.15625-0.21875 0.37109-0.21875 0.64062 0 0.28125 0.070313 0.5 0.21875 0.65625 0.14453 0.15625 0.35156 0.23438 0.625 0.23438 0.14453 0 0.28516-0.019531 0.42188-0.0625 0.13281-0.039063 0.25781-0.10938 0.375-0.20312v0.78125c-0.14844 0.0625-0.29688 0.10156-0.45312 0.125-0.15625 0.03125-0.3125 0.046875-0.46875 0.046875-0.54297 0-0.96484-0.13281-1.2656-0.40625-0.30469-0.28125-0.45312-0.67188-0.45312-1.1719 0-0.48828 0.14844-0.86719 0.45312-1.1406 0.30078-0.28125 0.72266-0.42188 1.2656-0.42188 0.15625 0 0.3125 0.015625 0.46875 0.046875 0.15625 0.023437 0.30469 0.0625 0.45312 0.125z"/>
  </symbol>
 </defs>
 <g>
  <path d="m607.91 293.34c-4.668-4.6836-10.734-7.7188-17.281-8.6523v-9.0664c-0.019531-18.559-7.4023-36.352-20.527-49.473-13.121-13.125-30.914-20.508-49.473-20.527h-111.56l13.125-17.5h115.94c6.9609-0.007812 13.629-2.7773 18.551-7.6992s7.6914-11.59 7.6992-18.551v-78.75c-0.007812-6.9609-2.7773-13.629-7.6992-18.551s-11.59-7.6914-18.551-7.6992h-26.25v-13.125c0-1.1602-0.46094-2.2734-1.2812-3.0938s-1.9336-1.2812-3.0938-1.2812c-17.98-0.011719-35.562 5.3086-50.52 15.289l-1.9805 1.3242-1.9805-1.3242c-14.957-9.9805-32.539-15.301-50.52-15.289-2.418 0-4.375 1.957-4.375 4.375v13.125h-26.25c-6.9609 0.007812-13.629 2.7773-18.551 7.6992s-7.6914 11.59-7.6992 18.551v78.75c0.007812 6.9609 2.7773 13.629 7.6992 18.551s11.59 7.6914 18.551 7.6992h17.5v17.5h-87.938c-1.0156-4.9375-3.7031-9.375-7.6055-12.562-3.9062-3.1875-8.793-4.9297-13.832-4.9375l-47.82-0.011719v-4.5391c5.4141-3.1211 8.75-8.8906 8.75-15.137v-17.664c1.1484 0.085937 2.2969 0.14062 3.4453 0.14062h8.2812c1.1602 0 2.2734-0.46094 3.0938-1.2812 0.82031-0.82031 1.2812-1.9336 1.2812-3.0938v-12.16c-0.007812-4.0664-1.1914-8.0469-3.4141-11.453-2.2422-3.4414-5.3984-6.1875-9.1211-7.9297-6.2969-3.0117-13.617-3.0156-19.918-0.011719l-8.4336 3.9922h0.003907c-6.4102-2.0078-13.406-0.5625-18.496 3.8203-2.4453 1.9961-4.2773 4.6406-5.293 7.6289-1.0117 2.9922-1.1641 6.207-0.4375 9.2773 0 0 4.4414 15.641 5.3047 20.977 0.85156 5.2812 3.8945 9.7109 8.707 11.398v16.035l-48.434 0.011719c-5.8008 0.003906-11.359 2.3125-15.461 6.4141-4.1016 4.1016-6.4102 9.6602-6.4141 15.461v11.016c-16.648 13.223-26.32 33.348-26.25 54.609v9.0664c-7.2852 1.0625-13.945 4.707-18.762 10.273-4.8203 5.5625-7.4766 12.676-7.4883 20.035v201.25c0.003906 5.8008 2.3125 11.359 6.4141 15.461 4.1016 4.1016 9.6602 6.4102 15.461 6.4141h490c5.8008-0.003906 11.359-2.3125 15.461-6.4141 4.1016-4.1016 6.4102-9.6602 6.4141-15.461v-201.25c0.019531-8.125-3.2109-15.922-8.9688-21.656zm-148.53-229.75 2.4609-1.6406c12.281-8.1992 26.543-12.938 41.289-13.715v78.75c-15.512 0.72656-30.578 5.4297-43.75 13.648zm-52.5-15.355c14.746 0.77734 29.008 5.5156 41.289 13.715l2.4609 1.6406v77.043c-13.172-8.2188-28.238-12.922-43.75-13.648zm-17.5 17.477c2.9297 0.12109 5.8633 0.37109 8.75 0.75391v64.785c0 1.1602 0.46094 2.2734 1.2812 3.0938s1.9336 1.2812 3.0938 1.2812c16.254-0.015625 32.148 4.793 45.664 13.824l4.4062 2.9414c1.4727 0.98047 3.3867 0.98047 4.8594 0l4.4062-2.9414c13.516-9.0312 29.41-13.84 45.664-13.824 1.1602 0 2.2734-0.46094 3.0938-1.2812s1.2812-1.9336 1.2812-3.0938v-64.781c2.8867-0.38281 5.8203-0.63281 8.75-0.75391v78.66h-7.832c-20.449-0.015625-40.488 5.7578-57.793 16.656-17.312-10.879-37.344-16.652-57.793-16.656h-7.832zm-87.5 148.66h87.5v4.375c0 1.8828 1.2031 3.5547 2.9922 4.1523 1.7852 0.59375 3.7539-0.019532 4.8828-1.5273l5.25-7h118.12c16.238 0.019531 31.809 6.4766 43.289 17.961 11.484 11.48 17.941 27.051 17.961 43.289v9.0664c-7.2852 1.0625-13.945 4.707-18.762 10.273-4.8203 5.5625-7.4766 12.676-7.4883 20.035v70c0 1.1602-0.46094 2.2734-1.2812 3.0938s-1.9336 1.2812-3.0938 1.2812h-13.125v-74.375c0-1.7695-1.0664-3.3672-2.6992-4.0469-1.6367-0.67578-3.5195-0.30078-4.7695 0.95312l-24.973 24.969h-134.57c0.5-1.4062 0.75781-2.8828 0.76562-4.375v-8.3125l15.324-76.617c0.76953-3.8555-0.23047-7.8555-2.7227-10.895-2.4961-3.0391-6.2188-4.8008-10.152-4.8008h-72.449zm30.625 65.625c0 5.3086-3.1992 10.094-8.1016 12.125-4.9062 2.0312-10.551 0.91016-14.305-2.8438s-4.875-9.3984-2.8438-14.305c2.0312-4.9023 6.8164-8.1016 12.125-8.1016 7.2461 0.007812 13.117 5.8789 13.125 13.125zm-122.2-124.69c0.83594-0.003906 1.6523 0.23828 2.3516 0.6875 1.9219 1.207 4.4453 0.74609 5.8203-1.0586 2.1445-2.8281 3.6094-6.1172 4.2773-9.6055 2.9844 1.6484 6.1484 2.9414 9.4258 3.8633v19.238c-0.003907 4.8281-3.918 8.7422-8.75 8.75-2.4141 0-4.375 1.957-4.375 4.375s1.9609 4.375 4.375 4.375v6.5625c0 2.418-1.957 4.375-4.375 4.375-2.4141 0-4.375-1.957-4.375-4.375v-24.062c0-1.1602-0.46094-2.2734-1.2812-3.0938-0.82031-0.82031-1.9336-1.2812-3.0938-1.2812-2.3594 0.015625-4.2969-1.8633-4.3633-4.2227 0-0.066406-0.011718-0.12109-0.011718-0.1875v0.003906c0.019531-2.4062 1.9727-4.3438 4.375-4.3438zm-65.93 54.688c0.007812-7.2461 5.8789-13.117 13.125-13.125l49.188-0.011719c0.65234 1.8555 1.707 3.5391 3.0938 4.9336 3.1875 3.1797 7.7852 4.5 12.176 3.5 4.3945-1 7.9648-4.1836 9.457-8.4336l48.586 0.011719c7.2461 0.007812 13.117 5.8789 13.125 13.125v21.875h-14.699c-6.2539 0.015625-11.633 4.4258-12.875 10.555l-8.3867 41.945h-77.789v-48.125c0-2.418-1.957-4.375-4.375-4.375s-4.375 1.957-4.375 4.375v30.625h-26.25zm0 65.625h26.25v13.125c0 1.1602 0.46094 2.2734 1.2812 3.0938s1.9336 1.2812 3.0938 1.2812h80.414l-5.25 26.25h-77.352c-7.5391-0.007812-14.77-3.0039-20.102-8.3359-5.332-5.332-8.3281-12.562-8.3359-20.102zm105 52.5v8.75h-52.5v-8.75zm-61.25 0v8.75h-26.25v-10.391c3.543 1.0898 7.2305 1.6406 10.938 1.6406zm-43.75-13.266c2.5039 2.9727 5.4531 5.5391 8.75 7.6016v27.539c0.003906 15.684 7.6602 30.379 20.508 39.375h-24.883c-2.418 0-4.375-1.957-4.375-4.375zm-26.25-39.234c-0.054688-16.035 6.2383-31.441 17.5-42.852v58.164c0 0.92969 0.042969 1.8477 0.10938 2.7578-0.10938-0.10937-0.21875-0.24219-0.32812-0.35156-4.668-4.6836-10.734-7.7188-17.281-8.6523zm-13.125 253.75c-7.2461-0.007812-13.117-5.8789-13.125-13.125v-201.25c0-7.8164 4.168-15.035 10.938-18.945 6.7695-3.9062 15.105-3.9062 21.875 0 6.7695 3.9102 10.938 11.129 10.938 18.945v70c0.007812 7.2461 5.8789 13.117 13.125 13.125h155.12l59.129 131.25zm503.12-13.125c-0.007812 7.2461-5.8789 13.117-13.125 13.125h-204.49l54.48-24.039c1.6641-0.73828 2.6953-2.4258 2.5977-4.2422-0.10156-1.8164-1.3125-3.3789-3.0469-3.9297l-33.699-10.742-54.445-121.15c-3.8086-8.4531-9.9766-15.629-17.762-20.664-7.7852-5.0391-16.859-7.7227-26.129-7.7305h-54.383v-8.75h105v4.375c0 1.1602-0.46094 2.2734-1.2812 3.0938s-1.9336 1.2812-3.0938 1.2812h-15.98c9.4961 5.957 17.016 14.586 21.613 24.805l16.375 36.445h170.49c7.2461-0.007812 13.117-5.8789 13.125-13.125v-70c0-7.8164 4.168-15.035 10.938-18.945 6.7695-3.9062 15.105-3.9062 21.875 0 6.7695 3.9102 10.938 11.129 10.938 18.945z"/>
 </g>
</svg>
