<?xml version="1.0" encoding="UTF-8"?>
<svg width="700pt" height="700pt" version="1.1" viewBox="0 0 700 700" xmlns="http://www.w3.org/2000/svg" xmlns:xlink="http://www.w3.org/1999/xlink">
 <defs>
  <symbol id="u" overflow="visible">
   <path d="m3.7812-0.21875c-0.19922 0.09375-0.40234 0.16797-0.60938 0.21875-0.21094 0.050781-0.42969 0.078125-0.65625 0.078125-0.6875 0-1.2344-0.1875-1.6406-0.5625-0.39844-0.38281-0.59375-0.90625-0.59375-1.5625s0.19531-1.1758 0.59375-1.5625c0.40625-0.38281 0.95312-0.57812 1.6406-0.57812 0.22656 0 0.44531 0.027344 0.65625 0.078125 0.20703 0.054687 0.41016 0.13281 0.60938 0.23438v0.84375c-0.19922-0.13281-0.39844-0.23438-0.59375-0.29688-0.1875-0.0625-0.38672-0.09375-0.59375-0.09375-0.375 0-0.67188 0.125-0.89062 0.375-0.21875 0.24219-0.32812 0.57422-0.32812 1 0 0.41797 0.10938 0.75 0.32812 1 0.21875 0.24219 0.51562 0.35938 0.89062 0.35938 0.20703 0 0.40625-0.03125 0.59375-0.09375 0.19531-0.0625 0.39453-0.16016 0.59375-0.29688z"/>
  </symbol>
  <symbol id="c" overflow="visible">
   <path d="m2.7656-2.25c-0.085937-0.039062-0.17188-0.066406-0.26562-0.078125-0.085938-0.019531-0.16797-0.03125-0.25-0.03125-0.25 0-0.44922 0.085937-0.59375 0.25-0.13672 0.15625-0.20312 0.38672-0.20312 0.6875v1.4219h-0.98438v-3.0781h0.98438v0.5c0.13281-0.19531 0.28125-0.34375 0.4375-0.4375 0.16406-0.09375 0.36328-0.14062 0.59375-0.14062h0.10938c0.039062 0 0.097656 0.007812 0.17188 0.015625z"/>
  </symbol>
  <symbol id="a" overflow="visible">
   <path d="m3.5469-1.5469v0.28125h-2.2969c0.019531 0.23047 0.10156 0.40234 0.25 0.51562 0.14453 0.11719 0.34375 0.17188 0.59375 0.17188 0.20703 0 0.42188-0.03125 0.64062-0.09375s0.44141-0.15625 0.67188-0.28125v0.76562c-0.23047 0.085938-0.46484 0.14844-0.70312 0.1875-0.23047 0.050781-0.46094 0.078125-0.6875 0.078125-0.5625 0-1-0.14062-1.3125-0.42188-0.30469-0.28125-0.45312-0.67969-0.45312-1.2031 0-0.5 0.14844-0.89062 0.45312-1.1719 0.30078-0.28906 0.71875-0.4375 1.25-0.4375 0.48828 0 0.875 0.14844 1.1562 0.4375 0.28906 0.29297 0.4375 0.68359 0.4375 1.1719zm-1-0.32812c0-0.1875-0.058594-0.33594-0.17188-0.45312-0.10547-0.11328-0.24609-0.17188-0.42188-0.17188-0.19922 0-0.35938 0.054688-0.48438 0.15625-0.11719 0.10547-0.18359 0.26172-0.20312 0.46875z"/>
  </symbol>
  <symbol id="f" overflow="visible">
   <path d="m1.8594-1.3906c-0.21094 0-0.36719 0.039063-0.46875 0.10938-0.10547 0.074219-0.15625 0.17969-0.15625 0.3125 0 0.125 0.039063 0.22656 0.125 0.29688 0.082031 0.0625 0.19531 0.09375 0.34375 0.09375 0.1875 0 0.34375-0.0625 0.46875-0.1875 0.13281-0.13281 0.20312-0.30469 0.20312-0.51562v-0.10938zm1.5-0.375v1.7656h-0.98438v-0.45312c-0.13672 0.1875-0.28906 0.32422-0.45312 0.40625-0.16797 0.082031-0.37109 0.125-0.60938 0.125-0.3125 0-0.57031-0.09375-0.76562-0.28125-0.19922-0.1875-0.29688-0.42578-0.29688-0.71875 0-0.36328 0.11719-0.62891 0.35938-0.79688 0.25-0.16406 0.64062-0.25 1.1719-0.25h0.59375v-0.078125c0-0.15625-0.0625-0.26953-0.1875-0.34375-0.125-0.070313-0.32031-0.10938-0.57812-0.10938-0.21094 0-0.40625 0.023438-0.59375 0.0625-0.17969 0.042969-0.34375 0.10547-0.5 0.1875v-0.75c0.20703-0.050781 0.41406-0.085938 0.625-0.10938 0.21875-0.03125 0.42969-0.046875 0.64062-0.046875 0.5625 0 0.96094 0.10938 1.2031 0.32812 0.25 0.21875 0.375 0.57422 0.375 1.0625z"/>
  </symbol>
  <symbol id="b" overflow="visible">
   <path d="m1.5469-3.9531v0.875h1.0156v0.70312h-1.0156v1.2969c0 0.14844 0.023437 0.24609 0.078125 0.29688 0.0625 0.054688 0.17578 0.078125 0.34375 0.078125h0.51562v0.70312h-0.84375c-0.39844 0-0.67969-0.078125-0.84375-0.23438-0.15625-0.16406-0.23438-0.44531-0.23438-0.84375v-1.2969h-0.48438v-0.70312h0.48438v-0.875z"/>
  </symbol>
  <symbol id="k" overflow="visible">
   <path d="m2.5781-2.6406v-1.6406h0.98438v4.2812h-0.98438v-0.45312c-0.13672 0.1875-0.28906 0.32422-0.45312 0.40625-0.16797 0.082031-0.35547 0.125-0.5625 0.125-0.38672 0-0.70312-0.14844-0.95312-0.45312-0.24219-0.30078-0.35938-0.69141-0.35938-1.1719 0-0.46875 0.11719-0.85156 0.35938-1.1562 0.25-0.30078 0.56641-0.45312 0.95312-0.45312 0.20703 0 0.39453 0.042969 0.5625 0.125 0.16406 0.085938 0.31641 0.21484 0.45312 0.39062zm-0.65625 2c0.20703 0 0.36719-0.070313 0.48438-0.21875 0.11328-0.15625 0.17188-0.38281 0.17188-0.6875 0-0.28906-0.058594-0.50781-0.17188-0.65625-0.11719-0.15625-0.27734-0.23438-0.48438-0.23438-0.21094 0-0.37109 0.078125-0.48438 0.23438-0.10547 0.14844-0.15625 0.36719-0.15625 0.65625 0 0.30469 0.050781 0.53125 0.15625 0.6875 0.11328 0.14844 0.27344 0.21875 0.48438 0.21875z"/>
  </symbol>
  <symbol id="j" overflow="visible">
   <path d="m2.1094-0.64062c0.21875 0 0.37891-0.070313 0.48438-0.21875 0.11328-0.15625 0.17188-0.38281 0.17188-0.6875 0-0.28906-0.058594-0.50781-0.17188-0.65625-0.10547-0.15625-0.26562-0.23438-0.48438-0.23438-0.21094 0-0.37109 0.078125-0.48438 0.23438-0.11719 0.14844-0.17188 0.36719-0.17188 0.65625 0 0.29297 0.054687 0.51562 0.17188 0.67188 0.11328 0.15625 0.27344 0.23438 0.48438 0.23438zm-0.65625-2c0.13281-0.17578 0.28516-0.30469 0.45312-0.39062 0.16406-0.082031 0.35938-0.125 0.57812-0.125 0.375 0 0.67969 0.15234 0.92188 0.45312 0.25 0.30469 0.375 0.6875 0.375 1.1562 0 0.48047-0.125 0.87109-0.375 1.1719-0.24219 0.30469-0.54688 0.45312-0.92188 0.45312-0.21875 0-0.41406-0.042969-0.57812-0.125-0.16797-0.082031-0.32031-0.21875-0.45312-0.40625v0.45312h-0.98438v-4.2812h0.98438z"/>
  </symbol>
  <symbol id="e" overflow="visible">
   <path d="m0.0625-3.0781h1l0.82812 2.0938 0.70312-2.0938h0.98438l-1.2969 3.375c-0.13672 0.34375-0.29297 0.58203-0.46875 0.71875-0.16797 0.13281-0.39062 0.20312-0.67188 0.20312h-0.57812v-0.65625h0.3125c0.16406 0 0.28516-0.027344 0.35938-0.078125 0.082031-0.054687 0.14453-0.14844 0.1875-0.28125l0.015625-0.078125z"/>
  </symbol>
  <symbol id="i" overflow="visible">
   <path d="m0.51562-4.1094h2.8594v0.79688h-1.7969v0.76562h1.6875v0.79688h-1.6875v0.95312h1.8594v0.79688h-2.9219z"/>
  </symbol>
  <symbol id="h" overflow="visible">
   <path d="m0.4375-1.2031v-1.875h1v0.29688c0 0.16797-0.007812 0.38281-0.015625 0.64062v0.5c0 0.25 0.003906 0.43359 0.015625 0.54688 0.019531 0.10547 0.046875 0.17969 0.078125 0.21875 0.039063 0.074219 0.09375 0.125 0.15625 0.15625s0.13281 0.046875 0.21875 0.046875c0.20703 0 0.36719-0.078125 0.48438-0.23438 0.125-0.15625 0.1875-0.375 0.1875-0.65625v-1.5156h0.98438v3.0781h-0.98438v-0.45312c-0.15625 0.1875-0.32031 0.32422-0.48438 0.40625-0.16797 0.082031-0.35156 0.125-0.54688 0.125-0.35547 0-0.625-0.10938-0.8125-0.32812s-0.28125-0.53516-0.28125-0.95312z"/>
  </symbol>
  <symbol id="g" overflow="visible">
   <path d="m2.9688-2.9844v0.79688c-0.13672-0.09375-0.27344-0.16016-0.40625-0.20312-0.13672-0.039063-0.27734-0.0625-0.42188-0.0625-0.27344 0-0.48438 0.085937-0.64062 0.25-0.15625 0.15625-0.23438 0.375-0.23438 0.65625 0 0.29297 0.078125 0.52344 0.23438 0.6875 0.15625 0.15625 0.36719 0.23438 0.64062 0.23438 0.15625 0 0.30078-0.019531 0.4375-0.0625 0.14453-0.050781 0.27344-0.11719 0.39062-0.20312v0.79688c-0.15625 0.0625-0.3125 0.10156-0.46875 0.125-0.15625 0.03125-0.32031 0.046875-0.48438 0.046875-0.55469 0-0.98438-0.14062-1.2969-0.42188-0.3125-0.28906-0.46875-0.69141-0.46875-1.2031 0-0.5 0.15625-0.89062 0.46875-1.1719 0.3125-0.28906 0.74219-0.4375 1.2969-0.4375 0.16406 0 0.32812 0.015625 0.48438 0.046875 0.15625 0.023437 0.3125 0.0625 0.46875 0.125z"/>
  </symbol>
  <symbol id="t" overflow="visible">
   <path d="m0.46875-4.2812h0.98438v4.2812h-0.98438z"/>
  </symbol>
  <symbol id="s" overflow="visible">
   <path d="m1.4531-0.45312v1.625h-0.98438v-4.25h0.98438v0.4375c0.13281-0.17578 0.28516-0.30469 0.45312-0.39062 0.16406-0.082031 0.35938-0.125 0.57812-0.125 0.375 0 0.67969 0.15234 0.92188 0.45312 0.25 0.30469 0.375 0.6875 0.375 1.1562 0 0.48047-0.125 0.87109-0.375 1.1719-0.24219 0.30469-0.54688 0.45312-0.92188 0.45312-0.21875 0-0.41406-0.042969-0.57812-0.125-0.16797-0.082031-0.32031-0.21875-0.45312-0.40625zm0.65625-1.9844c-0.21094 0-0.37109 0.078125-0.48438 0.23438-0.11719 0.14844-0.17188 0.36719-0.17188 0.65625 0 0.29297 0.054687 0.51562 0.17188 0.67188 0.11328 0.15625 0.27344 0.23438 0.48438 0.23438 0.21875 0 0.37891-0.070313 0.48438-0.21875 0.11328-0.15625 0.17188-0.38281 0.17188-0.6875 0-0.28906-0.058594-0.50781-0.17188-0.65625-0.10547-0.15625-0.26562-0.23438-0.48438-0.23438z"/>
  </symbol>
  <symbol id="r" overflow="visible">
   <path d="m2.5-4.2812v0.64062h-0.54688c-0.13672 0-0.23438 0.027344-0.29688 0.078125-0.054688 0.054688-0.078125 0.14062-0.078125 0.26562v0.21875h0.84375v0.70312h-0.84375v2.375h-0.98438v-2.375h-0.48438v-0.70312h0.48438v-0.21875c0-0.33203 0.09375-0.57812 0.28125-0.73438 0.1875-0.16406 0.47656-0.25 0.875-0.25z"/>
  </symbol>
  <symbol id="d" overflow="visible">
   <path d="m1.9375-2.4531c-0.21875 0-0.38672 0.078125-0.5 0.23438-0.11719 0.15625-0.17188 0.38281-0.17188 0.67188 0 0.30469 0.054687 0.53125 0.17188 0.6875 0.11328 0.15625 0.28125 0.23438 0.5 0.23438s0.38281-0.078125 0.5-0.23438c0.11328-0.15625 0.17188-0.38281 0.17188-0.6875 0-0.28906-0.058594-0.51562-0.17188-0.67188-0.11719-0.15625-0.28125-0.23438-0.5-0.23438zm0-0.70312c0.53125 0 0.94141 0.14844 1.2344 0.4375 0.30078 0.28125 0.45312 0.67188 0.45312 1.1719 0 0.51172-0.15234 0.91406-0.45312 1.2031-0.29297 0.28125-0.70312 0.42188-1.2344 0.42188s-0.94922-0.14062-1.25-0.42188c-0.29297-0.28906-0.4375-0.69141-0.4375-1.2031 0-0.5 0.14453-0.89062 0.4375-1.1719 0.30078-0.28906 0.71875-0.4375 1.25-0.4375z"/>
  </symbol>
  <symbol id="q" overflow="visible">
   <path d="m3.3281-2.5781c0.125-0.1875 0.26953-0.32812 0.4375-0.42188 0.17578-0.10156 0.36719-0.15625 0.57812-0.15625 0.35156 0 0.625 0.10938 0.8125 0.32812s0.28125 0.53906 0.28125 0.95312v1.875h-1v-1.6094-0.0625-0.125c0-0.21875-0.03125-0.375-0.09375-0.46875-0.0625-0.10156-0.16797-0.15625-0.3125-0.15625-0.1875 0-0.33594 0.078125-0.4375 0.23438-0.09375 0.15625-0.14062 0.38281-0.14062 0.67188v1.5156h-1v-1.6094c0-0.34375-0.03125-0.5625-0.09375-0.65625-0.054687-0.10156-0.15625-0.15625-0.3125-0.15625-0.1875 0-0.33594 0.078125-0.4375 0.23438-0.10547 0.15625-0.15625 0.38281-0.15625 0.67188v1.5156h-0.98438v-3.0781h0.98438v0.4375c0.125-0.16406 0.26562-0.28906 0.42188-0.375 0.15625-0.09375 0.32812-0.14062 0.51562-0.14062 0.21875 0 0.40625 0.054688 0.5625 0.15625 0.16406 0.10547 0.28906 0.24609 0.375 0.42188z"/>
  </symbol>
  <symbol id="p" overflow="visible">
   <path d="m3.5781-1.875v1.875h-1v-1.4375c0-0.26953-0.007813-0.45312-0.015625-0.54688-0.011719-0.10156-0.03125-0.17969-0.0625-0.23438-0.03125-0.0625-0.085938-0.10938-0.15625-0.14062-0.0625-0.039063-0.13672-0.0625-0.21875-0.0625-0.21094 0-0.375 0.085937-0.5 0.25-0.11719 0.15625-0.17188 0.375-0.17188 0.65625v1.5156h-0.98438v-4.2812h0.98438v1.6406c0.15625-0.17578 0.31641-0.30469 0.48438-0.39062 0.16406-0.082031 0.34766-0.125 0.54688-0.125 0.35156 0 0.625 0.10938 0.8125 0.32812s0.28125 0.53906 0.28125 0.95312z"/>
  </symbol>
  <symbol id="o" overflow="visible">
   <path d="m0.51562-4.1094h1.1875l1.5 2.8125v-2.8125h1v4.1094h-1.1875l-1.5-2.8281v2.8281h-1z"/>
  </symbol>
  <symbol id="n" overflow="visible">
   <path d="m3.5781-1.875v1.875h-1v-1.4375c0-0.26953-0.007813-0.45312-0.015625-0.54688-0.011719-0.10156-0.03125-0.17969-0.0625-0.23438-0.03125-0.0625-0.085938-0.10938-0.15625-0.14062-0.0625-0.039063-0.13672-0.0625-0.21875-0.0625-0.21094 0-0.375 0.085937-0.5 0.25-0.11719 0.15625-0.17188 0.375-0.17188 0.65625v1.5156h-0.98438v-3.0781h0.98438v0.4375c0.15625-0.17578 0.31641-0.30469 0.48438-0.39062 0.16406-0.082031 0.34766-0.125 0.54688-0.125 0.35156 0 0.625 0.10938 0.8125 0.32812s0.28125 0.53906 0.28125 0.95312z"/>
  </symbol>
  <symbol id="m" overflow="visible">
   <path d="m0.51562-4.1094h1.7656c0.51953 0 0.92188 0.11719 1.2031 0.34375 0.28125 0.23047 0.42188 0.5625 0.42188 1 0 0.42969-0.14062 0.76172-0.42188 1-0.28125 0.23047-0.68359 0.34375-1.2031 0.34375h-0.70312v1.4219h-1.0625zm1.0625 0.76562v1.1562h0.59375c0.19531 0 0.35156-0.050781 0.46875-0.15625 0.11328-0.10156 0.17188-0.24219 0.17188-0.42188 0-0.1875-0.058594-0.32812-0.17188-0.42188-0.11719-0.10156-0.27344-0.15625-0.46875-0.15625z"/>
  </symbol>
  <symbol id="l" overflow="visible">
   <path d="m0.46875-3.0781h0.98438v3.0156c0 0.41406-0.10156 0.73438-0.29688 0.95312-0.19922 0.21875-0.48438 0.32812-0.85938 0.32812h-0.48438v-0.65625h0.17188c0.1875 0 0.3125-0.042969 0.375-0.125 0.070313-0.085938 0.10938-0.25 0.10938-0.5zm0-1.2031h0.98438v0.79688h-0.98438z"/>
  </symbol>
 </defs>
 <g>
  <path d="m512.58 252.9c-29.883 0-54.195 24.309-54.195 54.195v36.129c0 29.883 24.312 54.195 54.195 54.195 29.883 0 54.195-24.309 54.195-54.195v-36.129c-0.003906-29.883-24.316-54.195-54.195-54.195zm0 18.066c19.922 0 36.129 16.207 36.129 36.129v18.066h-72.258v-18.066c0-19.922 16.207-36.129 36.129-36.129zm0 108.39c-19.922 0-36.129-16.207-36.129-36.129h72.258c0 19.922-16.207 36.129-36.129 36.129z"/>
  <path d="m630 459.09c0-18.887-7.3555-36.641-20.711-49.996l-0.63281-0.63281-20.613-13.742c9.7461-17.379 14.859-36.898 14.859-56.965v-30.66c0-20.672-6.9961-39.727-18.723-54.965 0.42969-5.832 0.66016-11.633 0.66016-17.293 0-129.49-105.35-234.84-234.84-234.84-61.926 0-120.36 23.895-164.53 67.281-42.719 41.957-67.465 97.555-70.062 157.11-26.816 12.73-45.406 40.062-45.406 71.668 0 9.6445 1.8281 19.348 5.2812 28.379-3.3477 5.4766-5.2812 11.91-5.2812 18.785 0 19.922 16.207 36.129 36.129 36.129h0.79688c2.6562 16.594 12.055 31.465 26.301 40.961v6.418l-17.367 4.9648c-27.004 7.7109-45.859 32.711-45.859 60.793v49.441h162.58v18.066h234.84v-18.066h162.58zm-45.16-121.34c0 19.516-5.7227 38.414-16.547 54.652l-5.0117 7.5156 18.797 12.531c-18.055 6.6406-34.82 16.105-50.027 28.273l-9.0273 7.2227c-2.9531 2.3633-6.6641 3.6641-10.445 3.6641s-7.4883-1.3008-10.441-3.6641l-9.0273-7.2227c-15.207-12.164-31.973-21.633-50.027-28.273l18.797-12.531-5.0078-7.5156c-6.0742-9.1133-10.531-19.059-13.301-29.609 3.6523-5.6445 5.7852-12.363 5.7852-19.574 0-8.1094-2.6875-15.602-7.2148-21.637 4.7266-11.762 7.2148-24.484 7.2148-37.145v-12.352c12.762-23.027 36.793-37.25 63.227-37.25 39.844 0 72.258 32.414 72.258 72.258zm-332.99 111.75c-7.8047-8.4258-17.785-14.609-28.992-17.809l-17.371-4.9648v-6.418c14.246-9.4961 23.645-24.367 26.301-40.961h0.79688c10.785 0 20.473-4.7539 27.098-12.27 6.625 7.5156 16.312 12.27 27.098 12.27h0.79688c2.6562 16.594 12.055 31.465 26.301 40.961v5.9844l-31.781 7.0625c-11.773 2.6172-22.105 8.3164-30.246 16.145zm-82.492 20.168c15.922 0 29.465-10.359 34.262-24.688l9.4805 2.7109-15.039 76.172h-57.41l-15.035-76.172 9.4805-2.707c4.7969 14.328 18.34 24.684 34.262 24.684zm63.227-144.52c9.9609 0 18.066 8.1055 18.066 18.066 0 9.9609-8.1055 18.066-18.066 18.066zm278.99-108.37c-9.0117-81.75-78.301-144.54-161.57-144.54-83.238 0-152.55 62.785-161.57 144.52h-18.168c9.0703-91.906 86.27-162.58 179.74-162.58 93.262 0 171.51 72.633 179.89 164.26-5.6055-1.0938-11.387-1.6836-17.305-1.6836-0.33594 0-0.67188 0.015624-1.0078 0.019531zm-161.57-126.47c74.016 0 135.6 55.793 143.62 128.45-6.0859 1.2969-11.977 3.207-17.598 5.6875-5.3008-64.887-59.793-116.07-126.02-116.07-66.312 0-120.86 51.312-126.04 116.31-5.5273-2.6836-11.41-4.7305-17.559-6.0781 8.0859-72.566 69.664-128.3 143.6-128.3zm-108.37 146.14c-0.007812-0.54297-0.019531-1.0859-0.019531-1.625 0-59.766 48.621-108.39 108.39-108.39 59.746 0 108.36 48.59 108.39 108.33-3.1719 2.3789-6.1875 4.9727-9.0312 7.7656v-19.277l-11.223 2.8047c-22.102 5.5273-45.359 5.1367-67.266-1.1211l-20.211-5.7734c-5.5859-1.5977-11.367-2.4062-17.18-2.4062-20.797 0-40.113 10.254-51.77 27.449-9.3008 1.3125-17.473 6.1758-23.098 13.172-4.4414-7.9141-10.199-14.988-16.977-20.934zm45.141 124.82c-9.9609 0-18.066-8.1055-18.066-18.066 0-9.9609 8.1055-18.066 18.066-18.066zm0.69141-54.191h-0.69141c-5.4219 0-10.562 1.207-15.18 3.3555-1.9023-6.9531-2.8828-14.121-2.8828-21.422v-9.0312c0-9.9609 8.1055-18.066 18.066-18.066h4.8359l4.8594-7.293c8.2695-12.398 22.102-19.805 37.004-19.805 4.1328 0 8.2461 0.57422 12.219 1.7109l20.211 5.7734c21.266 6.0742 43.652 7.293 65.387 3.625v38.496c0 8.6094-1.4258 17.25-4.1211 25.453-4.2969-1.7969-9.0078-2.7969-13.945-2.7969h-22.832c-15.898 0-30.195-8.8359-37.309-23.059-4.0312-8.0625-12.137-13.07-21.152-13.07s-17.121 5.0078-21.148 13.07l-2.5469 5.0938c-10.141 0.92969-18.422 8.3008-20.773 17.965zm125.76 18.062c9.9609 0 18.066 8.1055 18.066 18.066 0 9.9609-8.1055 18.066-18.066 18.066zm-93.203 118.28 17.203 17.203-11.277 11.277-11.66-27.207zm11.91-13.633v-19.156l-8.043-5.3633c-11.93-7.9531-19.051-21.262-19.051-35.602v-57.008c0-3.0781 2.5039-5.582 5.582-5.582h9.0312l7.4883-14.98c0.95312-1.9023 2.8672-3.0859 4.9922-3.0859 2.1289 0 4.043 1.1836 4.9922 3.0859 10.195 20.383 30.68 33.043 53.469 33.043h4.7656v44.527c0 14.336-7.125 27.648-19.051 35.598l-8.043 5.3633v19.156l-18.066 18.066zm48.043 13.633 5.7305 1.2734-11.66 27.207-11.273-11.277zm36.527-34.977-0.63281 0.63281c-5.9531 5.9531-10.816 12.98-14.316 20.633l-15.426-3.4258v-5.9844c14.246-9.4961 23.645-24.367 26.301-40.961l0.79687-0.003906c5.5234 0 10.758-1.25 15.445-3.4766 2.25 6.5195 5.0664 12.816 8.4453 18.844zm-66.504-390.4c119.53 0 216.77 97.246 216.77 216.77v0.046875c-5.6445-4.2461-11.805-7.8359-18.359-10.684-2.6211-49.836-23.582-96.293-59.434-131.38-37.348-36.559-86.707-56.691-138.98-56.691-51.43 0-100.21 19.574-137.36 55.117-34.934 33.43-56.223 77.73-60.527 125.53h-2.832c-5.2695 0-10.418 0.52734-15.406 1.5156 8.543-111.48 103-200.22 216.12-200.22zm-200.71 216.77h40.137c33.758 0 61.223 27.465 61.223 61.223v15.898c-5.3203-3.0859-11.484-4.8594-18.066-4.8594h-17.422c-27.125 0-52.625-10.562-71.793-29.73l-0.18359-0.18359c-4.0039-4.0117-9.332-6.2188-14.996-6.2188h-0.22266c-12.039 0-21.832 9.7773-21.832 21.801v14.328c-5.8281 0-11.332 1.3945-16.211 3.8555-1.2188-4.8438-1.8516-9.8164-1.8516-14.895 0-33.758 27.461-61.219 61.219-61.219zm-61.219 108.39c0-9.9609 8.1016-18.066 18.062-18.066v36.129c-9.9609 0-18.062-8.1016-18.062-18.062zm36.129 26.465v-76.926c0-2.0586 1.6914-3.7344 3.7656-3.7344h0.22266c0.83984 0 1.6289 0.32812 2.2148 0.91406l0.18359 0.18359c22.441 22.441 52.227 34.867 83.938 35.031v44.527c0 14.336-7.125 27.648-19.051 35.598l-8.043 5.3633-0.007812 22.898c0 9.9609-8.1055 18.066-18.066 18.066-9.9609 0-18.066-8.1055-18.066-18.066v-22.898l-8.043-5.3633c-11.926-7.9492-19.047-21.258-19.047-35.594zm-36.129 122.8c0-15.465 8.0117-29.609 20.516-37.809l13.652 69.188h-34.168zm128.41 31.379 13.664-69.211c3.9414 2.5664 7.4688 5.7422 10.453 9.4336-5.1328 9.1875-8.0078 19.773-8.0078 30.992v28.785zm232.88 18.062h-198.71v-46.852c0-21.332 14.543-39.457 35.363-44.086l10.336-2.2969 23.512 54.859 30.145-30.141 30.145 30.145 23.512-54.859 10.336 2.2969c20.82 4.625 35.363 22.754 35.363 44.086zm162.58-18.062h-144.52v-28.785c0-29.234-19.52-54.164-47.695-61.277 1.5859-2.8867 3.4375-5.6211 5.5273-8.168 20.688 5.8945 39.699 15.691 56.574 29.191l9.0312 7.2227c6.1445 4.9141 13.859 7.6211 21.727 7.6211 7.8672 0 15.582-2.707 21.727-7.6211l9.0273-7.2227c16.879-13.504 35.895-23.301 56.59-29.195 7.7695 9.4023 12.012 21.102 12.012 33.457v64.777z"/>
 </g>
</svg>
