<?xml version="1.0" encoding="UTF-8"?>
<svg width="700pt" height="700pt" version="1.1" viewBox="0 0 700 700" xmlns="http://www.w3.org/2000/svg">
 <path d="m350.12 26.25c-3.7227 0.007812-7.0352 2.3672-8.2578 5.8828l-15.672 45.016-47.664 0.97266 0.003906-0.003906c-3.7109 0.085937-6.9648 2.5039-8.1211 6.0312-1.1523 3.5273 0.046875 7.3984 2.9922 9.6562l38.008 28.832-13.793 45.629h0.003906c-1.0625 3.5547 0.23828 7.3906 3.2383 9.5742s7.0508 2.2344 10.105 0.13281l39.152-27.223 39.117 27.223h0.003906c3.0586 2.1289 7.1289 2.0898 10.141-0.097656 3.0156-2.1875 4.3164-6.043 3.2422-9.6094l-13.793-45.629 38.008-28.832c2.9453-2.2578 4.1445-6.1289 2.9922-9.6562-1.1523-3.5273-4.4062-5.9453-8.1211-6.0312l-47.664-0.97266-15.672-45.016 0.003906 0.003906c-1.2227-3.5156-4.5352-5.875-8.2539-5.8828zm0 35.359 9.3828 27.02h-0.003906c1.2031 3.457 4.4258 5.8008 8.0859 5.8789l28.59 0.59766-22.781 17.262c-2.9141 2.2109-4.1484 6-3.0938 9.5039l8.2695 27.344-23.445-16.32c-3.0078-2.0977-7.0039-2.0977-10.012 0l-23.449 16.32 8.2695-27.344h0.003906c1.0547-3.5039-0.17578-7.293-3.0938-9.5039l-22.781-17.262 28.574-0.59766c3.6602-0.078124 6.8828-2.4219 8.082-5.8789zm-177.36 29.172c-3.7031 0.007812-7.0039 2.3711-8.2227 5.8984l-13.176 38.211-40.109 0.83594v0.003907c-3.7031 0.078125-6.9492 2.5117-8.0977 6.0625-1.1445 3.5508 0.058594 7.4453 3.0039 9.7109l31.957 24.457-11.605 38.691 0.003906-0.003906c-1.082 3.582 0.20312 7.4609 3.207 9.668 3 2.2031 7.0586 2.2461 10.105 0.10938l32.934-23.121 32.934 23.121h-0.003906c3.0508 2.1367 7.1094 2.0938 10.109-0.10938 3-2.207 4.2891-6.0859 3.207-9.668l-11.605-38.691 31.957-24.457v0.003906c2.9492-2.2656 4.1523-6.1602 3.0078-9.7109-1.1484-3.5508-4.3945-5.9844-8.1016-6.0625l-40.109-0.83594-13.176-38.211v-0.003906c-1.2188-3.5273-4.5156-5.8906-8.2188-5.8984zm354.48 0.066406c-3.6992 0.003906-6.9961 2.3594-8.2188 5.8789l-13.176 38.211-40.109 0.83594-0.003906 0.003906c-3.7031 0.082031-6.9492 2.5156-8.0977 6.0664-1.1445 3.5508 0.058594 7.4453 3.0078 9.707l31.957 24.457-11.605 38.691c-1.082 3.582 0.20703 7.4609 3.207 9.6641s7.0586 2.25 10.105 0.10938l32.934-23.121 32.934 23.121c3.0469 2.1406 7.1055 2.0938 10.105-0.10938 3.0039-2.2031 4.2891-6.082 3.207-9.6641l-11.605-38.691 31.957-24.457c2.9492-2.2617 4.1523-6.1562 3.0078-9.707-1.1484-3.5508-4.3945-5.9844-8.0977-6.0664l-40.109-0.83594-13.176-38.211-0.003907-0.003907c-1.2227-3.5195-4.5195-5.875-8.2188-5.8789zm-354.48 35.48 6.9219 20.113c1.1914 3.4766 4.4023 5.8359 8.0469 5.9141l21.105 0.44141-16.801 12.836h0.003906c-2.9062 2.2227-4.1367 6.0352-3.0781 9.5547l6.1016 20.387-17.328-12.168c-2.9883-2.0938-6.957-2.0938-9.9453 0l-17.328 12.168 6.1016-20.387h-0.003906c1.0586-3.5195-0.16797-7.332-3.0742-9.5547l-16.801-12.836 21.105-0.44141c3.6484-0.078125 6.8594-2.4375 8.0508-5.9141zm354.48 0.03125 6.9219 20.113v0.003906c1.1914 3.4727 4.4023 5.832 8.0508 5.9141l21.105 0.44141-16.801 12.852c-2.8984 2.2188-4.125 6.0195-3.0742 9.5352l6.1016 20.387-17.328-12.168-0.003906 0.003906c-2.9883-2.0977-6.957-2.0977-9.9453 0l-17.328 12.168 6.1016-20.387v-0.003906c1.0508-3.5156-0.17578-7.3164-3.0781-9.5352l-16.801-12.852 21.105-0.44141h0.003906c3.6445-0.082031 6.8555-2.4414 8.0469-5.9141zm-187.36 85.723c-88.699 0-160.78 72.109-160.78 160.83 0 45.625 19.066 86.852 49.645 116.14v0.003906c0.27344 0.30078 0.5625 0.57812 0.87109 0.83594 28.797 27.176 67.613 43.852 110.26 43.852 42.512 0 81.207-16.574 109.99-43.598l0.003906 0.003906c0.67969-0.48438 1.2812-1.0586 1.7969-1.7109 30.223-29.254 49.047-70.219 49.047-115.53 0-88.723-72.133-160.83-160.83-160.83zm0 17.5c79.238 0 143.32 64.062 143.32 143.33 0 35.836-13.086 68.562-34.762 93.668-12.848-31.168-38.926-55.457-71.281-66.172 17.652-11.895 29.309-31.965 29.309-54.688 0-36.441-29.969-66.137-66.582-66.137-36.613 0-66.531 29.695-66.531 66.137 0 22.723 11.625 42.793 29.258 54.688-32.344 10.715-58.391 35.012-71.23 66.188-21.676-25.109-34.762-57.84-34.762-93.688 0-79.27 64.023-143.33 143.27-143.33zm0 67.504c27.23 0 49.082 21.73 49.082 48.637 0 26.91-21.852 48.57-49.082 48.57-27.23 0-49.031-21.66-49.031-48.57s21.801-48.637 49.031-48.637zm0 114.84c44.664 0 82.074 28.652 94.949 68.395-25.277 22.355-58.5 35.922-94.949 35.922-36.438 0-69.66-13.547-94.918-35.891 12.863-39.762 50.242-68.426 94.918-68.426z"/>
</svg>
