<svg width="17" height="17" viewBox="0 0 17 17" fill="none" xmlns="http://www.w3.org/2000/svg">
<path d="M2.125 11.3333H3.54167V15.5833C3.54167 15.9745 3.22454 16.2917 2.83333 16.2917C2.44213 16.2917 2.125 15.9745 2.125 15.5833V11.3333Z" fill="#999898"/>
<path d="M7.79169 9.20834H9.20835V15.5833C9.20835 15.9745 8.89122 16.2917 8.50002 16.2917C8.10882 16.2917 7.79169 15.9745 7.79169 15.5833V9.20834Z" fill="#999898"/>
<path d="M2.125 1.41668C2.125 1.02548 2.44213 0.708344 2.83333 0.708344C3.22454 0.708344 3.54167 1.02548 3.54167 1.41668V7.79168H2.125V1.41668Z" fill="#999898"/>
<path d="M13.4583 11.3333H14.875V15.5833C14.875 15.9745 14.5578 16.2917 14.1666 16.2917C13.7754 16.2917 13.4583 15.9745 13.4583 15.5833V11.3333Z" fill="#999898"/>
<path d="M13.4583 1.41668C13.4583 1.02548 13.7754 0.708344 14.1666 0.708344C14.5578 0.708344 14.875 1.02548 14.875 1.41668V7.79168H13.4583V1.41668Z" fill="#999898"/>
<path d="M7.79169 1.41668C7.79169 1.02548 8.10882 0.708344 8.50002 0.708344C8.89122 0.708344 9.20835 1.02548 9.20835 1.41668V5.66668H7.79169V1.41668Z" fill="#999898"/>
<rect x="11.3333" y="9.20834" width="5.66667" height="3.54167" rx="1.61905" fill="#999898"/>
<rect x="5.66669" y="4.25" width="5.66667" height="3.54167" rx="1.61905" fill="#999898"/>
<rect y="9.20834" width="5.66667" height="3.54167" rx="1.61905" fill="#999898"/>
</svg>
