<?xml version="1.0" encoding="UTF-8"?>
<svg width="700pt" height="700pt" version="1.1" viewBox="0 0 700 700" xmlns="http://www.w3.org/2000/svg" xmlns:xlink="http://www.w3.org/1999/xlink">
 <defs>
  <symbol id="v" overflow="visible">
   <path d="m3.7812-0.21875c-0.19922 0.09375-0.40234 0.16797-0.60938 0.21875-0.21094 0.050781-0.42969 0.078125-0.65625 0.078125-0.6875 0-1.2344-0.1875-1.6406-0.5625-0.39844-0.38281-0.59375-0.90625-0.59375-1.5625s0.19531-1.1758 0.59375-1.5625c0.40625-0.38281 0.95312-0.57812 1.6406-0.57812 0.22656 0 0.44531 0.027344 0.65625 0.078125 0.20703 0.054687 0.41016 0.13281 0.60938 0.23438v0.84375c-0.19922-0.13281-0.39844-0.23438-0.59375-0.29688-0.1875-0.0625-0.38672-0.09375-0.59375-0.09375-0.375 0-0.67188 0.125-0.89062 0.375-0.21875 0.24219-0.32812 0.57422-0.32812 1 0 0.41797 0.10938 0.75 0.32812 1 0.21875 0.24219 0.51562 0.35938 0.89062 0.35938 0.20703 0 0.40625-0.03125 0.59375-0.09375 0.19531-0.0625 0.39453-0.16016 0.59375-0.29688z"/>
  </symbol>
  <symbol id="d" overflow="visible">
   <path d="m2.7656-2.25c-0.085937-0.039062-0.17188-0.066406-0.26562-0.078125-0.085938-0.019531-0.16797-0.03125-0.25-0.03125-0.25 0-0.44922 0.085937-0.59375 0.25-0.13672 0.15625-0.20312 0.38672-0.20312 0.6875v1.4219h-0.98438v-3.0781h0.98438v0.5c0.13281-0.19531 0.28125-0.34375 0.4375-0.4375 0.16406-0.09375 0.36328-0.14062 0.59375-0.14062h0.10938c0.039062 0 0.097656 0.007812 0.17188 0.015625z"/>
  </symbol>
  <symbol id="b" overflow="visible">
   <path d="m3.5469-1.5469v0.28125h-2.2969c0.019531 0.23047 0.10156 0.40234 0.25 0.51562 0.14453 0.11719 0.34375 0.17188 0.59375 0.17188 0.20703 0 0.42188-0.03125 0.64062-0.09375s0.44141-0.15625 0.67188-0.28125v0.76562c-0.23047 0.085938-0.46484 0.14844-0.70312 0.1875-0.23047 0.050781-0.46094 0.078125-0.6875 0.078125-0.5625 0-1-0.14062-1.3125-0.42188-0.30469-0.28125-0.45312-0.67969-0.45312-1.2031 0-0.5 0.14844-0.89062 0.45312-1.1719 0.30078-0.28906 0.71875-0.4375 1.25-0.4375 0.48828 0 0.875 0.14844 1.1562 0.4375 0.28906 0.29297 0.4375 0.68359 0.4375 1.1719zm-1-0.32812c0-0.1875-0.058594-0.33594-0.17188-0.45312-0.10547-0.11328-0.24609-0.17188-0.42188-0.17188-0.19922 0-0.35938 0.054688-0.48438 0.15625-0.11719 0.10547-0.18359 0.26172-0.20312 0.46875z"/>
  </symbol>
  <symbol id="l" overflow="visible">
   <path d="m1.8594-1.3906c-0.21094 0-0.36719 0.039063-0.46875 0.10938-0.10547 0.074219-0.15625 0.17969-0.15625 0.3125 0 0.125 0.039063 0.22656 0.125 0.29688 0.082031 0.0625 0.19531 0.09375 0.34375 0.09375 0.1875 0 0.34375-0.0625 0.46875-0.1875 0.13281-0.13281 0.20312-0.30469 0.20312-0.51562v-0.10938zm1.5-0.375v1.7656h-0.98438v-0.45312c-0.13672 0.1875-0.28906 0.32422-0.45312 0.40625-0.16797 0.082031-0.37109 0.125-0.60938 0.125-0.3125 0-0.57031-0.09375-0.76562-0.28125-0.19922-0.1875-0.29688-0.42578-0.29688-0.71875 0-0.36328 0.11719-0.62891 0.35938-0.79688 0.25-0.16406 0.64062-0.25 1.1719-0.25h0.59375v-0.078125c0-0.15625-0.0625-0.26953-0.1875-0.34375-0.125-0.070313-0.32031-0.10938-0.57812-0.10938-0.21094 0-0.40625 0.023438-0.59375 0.0625-0.17969 0.042969-0.34375 0.10547-0.5 0.1875v-0.75c0.20703-0.050781 0.41406-0.085938 0.625-0.10938 0.21875-0.03125 0.42969-0.046875 0.64062-0.046875 0.5625 0 0.96094 0.10938 1.2031 0.32812 0.25 0.21875 0.375 0.57422 0.375 1.0625z"/>
  </symbol>
  <symbol id="a" overflow="visible">
   <path d="m1.5469-3.9531v0.875h1.0156v0.70312h-1.0156v1.2969c0 0.14844 0.023437 0.24609 0.078125 0.29688 0.0625 0.054688 0.17578 0.078125 0.34375 0.078125h0.51562v0.70312h-0.84375c-0.39844 0-0.67969-0.078125-0.84375-0.23438-0.15625-0.16406-0.23438-0.44531-0.23438-0.84375v-1.2969h-0.48438v-0.70312h0.48438v-0.875z"/>
  </symbol>
  <symbol id="f" overflow="visible">
   <path d="m2.5781-2.6406v-1.6406h0.98438v4.2812h-0.98438v-0.45312c-0.13672 0.1875-0.28906 0.32422-0.45312 0.40625-0.16797 0.082031-0.35547 0.125-0.5625 0.125-0.38672 0-0.70312-0.14844-0.95312-0.45312-0.24219-0.30078-0.35938-0.69141-0.35938-1.1719 0-0.46875 0.11719-0.85156 0.35938-1.1562 0.25-0.30078 0.56641-0.45312 0.95312-0.45312 0.20703 0 0.39453 0.042969 0.5625 0.125 0.16406 0.085938 0.31641 0.21484 0.45312 0.39062zm-0.65625 2c0.20703 0 0.36719-0.070313 0.48438-0.21875 0.11328-0.15625 0.17188-0.38281 0.17188-0.6875 0-0.28906-0.058594-0.50781-0.17188-0.65625-0.11719-0.15625-0.27734-0.23438-0.48438-0.23438-0.21094 0-0.37109 0.078125-0.48438 0.23438-0.10547 0.14844-0.15625 0.36719-0.15625 0.65625 0 0.30469 0.050781 0.53125 0.15625 0.6875 0.11328 0.14844 0.27344 0.21875 0.48438 0.21875z"/>
  </symbol>
  <symbol id="k" overflow="visible">
   <path d="m2.1094-0.64062c0.21875 0 0.37891-0.070313 0.48438-0.21875 0.11328-0.15625 0.17188-0.38281 0.17188-0.6875 0-0.28906-0.058594-0.50781-0.17188-0.65625-0.10547-0.15625-0.26562-0.23438-0.48438-0.23438-0.21094 0-0.37109 0.078125-0.48438 0.23438-0.11719 0.14844-0.17188 0.36719-0.17188 0.65625 0 0.29297 0.054687 0.51562 0.17188 0.67188 0.11328 0.15625 0.27344 0.23438 0.48438 0.23438zm-0.65625-2c0.13281-0.17578 0.28516-0.30469 0.45312-0.39062 0.16406-0.082031 0.35938-0.125 0.57812-0.125 0.375 0 0.67969 0.15234 0.92188 0.45312 0.25 0.30469 0.375 0.6875 0.375 1.1562 0 0.48047-0.125 0.87109-0.375 1.1719-0.24219 0.30469-0.54688 0.45312-0.92188 0.45312-0.21875 0-0.41406-0.042969-0.57812-0.125-0.16797-0.082031-0.32031-0.21875-0.45312-0.40625v0.45312h-0.98438v-4.2812h0.98438z"/>
  </symbol>
  <symbol id="e" overflow="visible">
   <path d="m0.0625-3.0781h1l0.82812 2.0938 0.70312-2.0938h0.98438l-1.2969 3.375c-0.13672 0.34375-0.29297 0.58203-0.46875 0.71875-0.16797 0.13281-0.39062 0.20312-0.67188 0.20312h-0.57812v-0.65625h0.3125c0.16406 0 0.28516-0.027344 0.35938-0.078125 0.082031-0.054687 0.14453-0.14844 0.1875-0.28125l0.015625-0.078125z"/>
  </symbol>
  <symbol id="j" overflow="visible">
   <path d="m3.0156-0.75h-1.6562l-0.26562 0.75h-1.0625l1.5156-4.1094h1.2656l1.5312 4.1094h-1.0781zm-1.3906-0.76562h1.125l-0.5625-1.625z"/>
  </symbol>
  <symbol id="i" overflow="visible">
   <path d="m3.3281-2.5781c0.125-0.1875 0.26953-0.32812 0.4375-0.42188 0.17578-0.10156 0.36719-0.15625 0.57812-0.15625 0.35156 0 0.625 0.10938 0.8125 0.32812s0.28125 0.53906 0.28125 0.95312v1.875h-1v-1.6094-0.0625-0.125c0-0.21875-0.03125-0.375-0.09375-0.46875-0.0625-0.10156-0.16797-0.15625-0.3125-0.15625-0.1875 0-0.33594 0.078125-0.4375 0.23438-0.09375 0.15625-0.14062 0.38281-0.14062 0.67188v1.5156h-1v-1.6094c0-0.34375-0.03125-0.5625-0.09375-0.65625-0.054687-0.10156-0.15625-0.15625-0.3125-0.15625-0.1875 0-0.33594 0.078125-0.4375 0.23438-0.10547 0.15625-0.15625 0.38281-0.15625 0.67188v1.5156h-0.98438v-3.0781h0.98438v0.4375c0.125-0.16406 0.26562-0.28906 0.42188-0.375 0.15625-0.09375 0.32812-0.14062 0.51562-0.14062 0.21875 0 0.40625 0.054688 0.5625 0.15625 0.16406 0.10547 0.28906 0.24609 0.375 0.42188z"/>
  </symbol>
  <symbol id="h" overflow="visible">
   <path d="m3.5781-1.875v1.875h-1v-1.4375c0-0.26953-0.007813-0.45312-0.015625-0.54688-0.011719-0.10156-0.03125-0.17969-0.0625-0.23438-0.03125-0.0625-0.085938-0.10938-0.15625-0.14062-0.0625-0.039063-0.13672-0.0625-0.21875-0.0625-0.21094 0-0.375 0.085937-0.5 0.25-0.11719 0.15625-0.17188 0.375-0.17188 0.65625v1.5156h-0.98438v-4.2812h0.98438v1.6406c0.15625-0.17578 0.31641-0.30469 0.48438-0.39062 0.16406-0.082031 0.34766-0.125 0.54688-0.125 0.35156 0 0.625 0.10938 0.8125 0.32812s0.28125 0.53906 0.28125 0.95312z"/>
  </symbol>
  <symbol id="u" overflow="visible">
   <path d="m2.8906-2.9844v0.75c-0.21875-0.09375-0.42969-0.16016-0.625-0.20312-0.1875-0.039062-0.37109-0.0625-0.54688-0.0625-0.1875 0-0.32812 0.027344-0.42188 0.078125-0.09375 0.042969-0.14062 0.10938-0.14062 0.20312 0 0.085938 0.035156 0.14844 0.10938 0.1875 0.070313 0.042969 0.19531 0.074219 0.375 0.09375l0.17188 0.015625c0.5 0.0625 0.83594 0.17188 1.0156 0.32812 0.17578 0.14844 0.26562 0.375 0.26562 0.6875 0 0.32422-0.125 0.57031-0.375 0.73438-0.24219 0.16797-0.60156 0.25-1.0781 0.25-0.21094 0-0.42188-0.015625-0.64062-0.046875-0.21094-0.03125-0.42969-0.078125-0.65625-0.14062v-0.75c0.19531 0.09375 0.39453 0.16797 0.59375 0.21875 0.20703 0.042969 0.42188 0.0625 0.64062 0.0625 0.1875 0 0.32812-0.023437 0.42188-0.078125 0.10156-0.050781 0.15625-0.12891 0.15625-0.23438 0-0.09375-0.039062-0.16016-0.10938-0.20312-0.0625-0.039062-0.19531-0.070312-0.39062-0.09375l-0.17188-0.03125c-0.4375-0.050781-0.74609-0.14844-0.92188-0.29688-0.17969-0.14453-0.26562-0.36719-0.26562-0.67188 0-0.33203 0.10938-0.57812 0.32812-0.73438 0.22656-0.15625 0.57031-0.23438 1.0312-0.23438 0.1875 0 0.37891 0.015625 0.57812 0.046875 0.19531 0.023437 0.41406 0.0625 0.65625 0.125z"/>
  </symbol>
  <symbol id="t" overflow="visible">
   <path d="m3.375-3.9844v0.875c-0.21875-0.10156-0.4375-0.17969-0.65625-0.23438-0.21875-0.050781-0.42188-0.078125-0.60938-0.078125-0.25 0-0.4375 0.039063-0.5625 0.10938-0.125 0.074219-0.1875 0.18359-0.1875 0.32812 0 0.10547 0.039063 0.1875 0.125 0.25 0.082031 0.0625 0.23438 0.11719 0.45312 0.15625l0.45312 0.09375c0.45703 0.09375 0.78125 0.23438 0.96875 0.42188 0.19531 0.1875 0.29688 0.45312 0.29688 0.79688 0 0.46094-0.13672 0.79688-0.40625 1.0156-0.27344 0.21875-0.68359 0.32812-1.2344 0.32812-0.26172 0-0.52734-0.027344-0.79688-0.078125-0.26172-0.039062-0.52344-0.11328-0.78125-0.21875v-0.89062c0.25781 0.13672 0.50781 0.24219 0.75 0.3125 0.25 0.074219 0.48828 0.10938 0.71875 0.10938 0.23828 0 0.41406-0.035156 0.53125-0.10938 0.125-0.082031 0.1875-0.19531 0.1875-0.34375 0-0.125-0.042969-0.21875-0.125-0.28125-0.085938-0.070313-0.25-0.14062-0.5-0.20312l-0.40625-0.078125c-0.41797-0.09375-0.71875-0.23438-0.90625-0.42188-0.1875-0.19531-0.28125-0.45703-0.28125-0.78125 0-0.41406 0.12891-0.73438 0.39062-0.95312 0.26953-0.21875 0.64844-0.32812 1.1406-0.32812 0.22656 0 0.46094 0.023438 0.70312 0.0625 0.23828 0.03125 0.48438 0.078125 0.73438 0.14062z"/>
  </symbol>
  <symbol id="g" overflow="visible">
   <path d="m0.4375-1.2031v-1.875h1v0.29688c0 0.16797-0.007812 0.38281-0.015625 0.64062v0.5c0 0.25 0.003906 0.43359 0.015625 0.54688 0.019531 0.10547 0.046875 0.17969 0.078125 0.21875 0.039063 0.074219 0.09375 0.125 0.15625 0.15625s0.13281 0.046875 0.21875 0.046875c0.20703 0 0.36719-0.078125 0.48438-0.23438 0.125-0.15625 0.1875-0.375 0.1875-0.65625v-1.5156h0.98438v3.0781h-0.98438v-0.45312c-0.15625 0.1875-0.32031 0.32422-0.48438 0.40625-0.16797 0.082031-0.35156 0.125-0.54688 0.125-0.35547 0-0.625-0.10938-0.8125-0.32812s-0.28125-0.53516-0.28125-0.95312z"/>
  </symbol>
  <symbol id="s" overflow="visible">
   <path d="m0.46875-3.0781h0.98438v3.0781h-0.98438zm0-1.2031h0.98438v0.79688h-0.98438z"/>
  </symbol>
  <symbol id="c" overflow="visible">
   <path d="m1.9375-2.4531c-0.21875 0-0.38672 0.078125-0.5 0.23438-0.11719 0.15625-0.17188 0.38281-0.17188 0.67188 0 0.30469 0.054687 0.53125 0.17188 0.6875 0.11328 0.15625 0.28125 0.23438 0.5 0.23438s0.38281-0.078125 0.5-0.23438c0.11328-0.15625 0.17188-0.38281 0.17188-0.6875 0-0.28906-0.058594-0.51562-0.17188-0.67188-0.11719-0.15625-0.28125-0.23438-0.5-0.23438zm0-0.70312c0.53125 0 0.94141 0.14844 1.2344 0.4375 0.30078 0.28125 0.45312 0.67188 0.45312 1.1719 0 0.51172-0.15234 0.91406-0.45312 1.2031-0.29297 0.28125-0.70312 0.42188-1.2344 0.42188s-0.94922-0.14062-1.25-0.42188c-0.29297-0.28906-0.4375-0.69141-0.4375-1.2031 0-0.5 0.14453-0.89062 0.4375-1.1719 0.30078-0.28906 0.71875-0.4375 1.25-0.4375z"/>
  </symbol>
  <symbol id="r" overflow="visible">
   <path d="m2.5-4.2812v0.64062h-0.54688c-0.13672 0-0.23438 0.027344-0.29688 0.078125-0.054688 0.054688-0.078125 0.14062-0.078125 0.26562v0.21875h0.84375v0.70312h-0.84375v2.375h-0.98438v-2.375h-0.48438v-0.70312h0.48438v-0.21875c0-0.33203 0.09375-0.57812 0.28125-0.73438 0.1875-0.16406 0.47656-0.25 0.875-0.25z"/>
  </symbol>
  <symbol id="q" overflow="visible">
   <path d="m0.51562-4.1094h1.1875l1.5 2.8125v-2.8125h1v4.1094h-1.1875l-1.5-2.8281v2.8281h-1z"/>
  </symbol>
  <symbol id="p" overflow="visible">
   <path d="m3.5781-1.875v1.875h-1v-1.4375c0-0.26953-0.007813-0.45312-0.015625-0.54688-0.011719-0.10156-0.03125-0.17969-0.0625-0.23438-0.03125-0.0625-0.085938-0.10938-0.15625-0.14062-0.0625-0.039063-0.13672-0.0625-0.21875-0.0625-0.21094 0-0.375 0.085937-0.5 0.25-0.11719 0.15625-0.17188 0.375-0.17188 0.65625v1.5156h-0.98438v-3.0781h0.98438v0.4375c0.15625-0.17578 0.31641-0.30469 0.48438-0.39062 0.16406-0.082031 0.34766-0.125 0.54688-0.125 0.35156 0 0.625 0.10938 0.8125 0.32812s0.28125 0.53906 0.28125 0.95312z"/>
  </symbol>
  <symbol id="o" overflow="visible">
   <path d="m0.51562-4.1094h1.7656c0.51953 0 0.92188 0.11719 1.2031 0.34375 0.28125 0.23047 0.42188 0.5625 0.42188 1 0 0.42969-0.14062 0.76172-0.42188 1-0.28125 0.23047-0.68359 0.34375-1.2031 0.34375h-0.70312v1.4219h-1.0625zm1.0625 0.76562v1.1562h0.59375c0.19531 0 0.35156-0.050781 0.46875-0.15625 0.11328-0.10156 0.17188-0.24219 0.17188-0.42188 0-0.1875-0.058594-0.32812-0.17188-0.42188-0.11719-0.10156-0.27344-0.15625-0.46875-0.15625z"/>
  </symbol>
  <symbol id="n" overflow="visible">
   <path d="m0.46875-3.0781h0.98438v3.0156c0 0.41406-0.10156 0.73438-0.29688 0.95312-0.19922 0.21875-0.48438 0.32812-0.85938 0.32812h-0.48438v-0.65625h0.17188c0.1875 0 0.3125-0.042969 0.375-0.125 0.070313-0.085938 0.10938-0.25 0.10938-0.5zm0-1.2031h0.98438v0.79688h-0.98438z"/>
  </symbol>
  <symbol id="m" overflow="visible">
   <path d="m2.9688-2.9844v0.79688c-0.13672-0.09375-0.27344-0.16016-0.40625-0.20312-0.13672-0.039063-0.27734-0.0625-0.42188-0.0625-0.27344 0-0.48438 0.085937-0.64062 0.25-0.15625 0.15625-0.23438 0.375-0.23438 0.65625 0 0.29297 0.078125 0.52344 0.23438 0.6875 0.15625 0.15625 0.36719 0.23438 0.64062 0.23438 0.15625 0 0.30078-0.019531 0.4375-0.0625 0.14453-0.050781 0.27344-0.11719 0.39062-0.20312v0.79688c-0.15625 0.0625-0.3125 0.10156-0.46875 0.125-0.15625 0.03125-0.32031 0.046875-0.48438 0.046875-0.55469 0-0.98438-0.14062-1.2969-0.42188-0.3125-0.28906-0.46875-0.69141-0.46875-1.2031 0-0.5 0.15625-0.89062 0.46875-1.1719 0.3125-0.28906 0.74219-0.4375 1.2969-0.4375 0.16406 0 0.32812 0.015625 0.48438 0.046875 0.15625 0.023437 0.3125 0.0625 0.46875 0.125z"/>
  </symbol>
 </defs>
 <g>
  <path d="m593.1 475.35c-3.6602-3.0508-8.4453-4.3125-13.129-3.4609l-31.949 5.8203c-6.5664 1.1992-13.273 1.543-19.934 1.0312l-3.2461-0.25 15.195-15.227c3.7812-3.7891 5.457-8.9922 4.5977-14.281-0.85938-5.2812-4.0898-9.6875-8.8711-12.082-4.8125-2.4102-10.5-2.3086-15.223 0.27344l-28.102 15.359c-15.285 8.3555-24.785 24.387-24.785 41.836v10.102h0.003906c0 0.039063-0.003906 0.074219-0.003906 0.11328v7.0469c-7.8203-18.238-20.453-34.355-36.855-46.316l-32.652-23.805c-9.3711-6.832-15.207-17.551-15.922-29.035 11.277-7.3477 19.91-16.672 24.332-23.832 3.5781-5.7969 6.6758-14.02 9.2031-24.441 3.7539-15.477 5.1367-31.969 4.1172-49.016-1.4805-24.684-6.4453-43.84-15.176-58.562-12.652-21.336-32.77-32.152-59.797-32.152s-47.145 10.82-59.797 32.152c-8.7305 14.723-13.695 33.879-15.176 58.562-1.0234 17.051 0.35938 33.543 4.1172 49.012 2.5273 10.422 5.625 18.648 9.2031 24.441 4.4219 7.1602 13.055 16.488 24.332 23.832-0.71875 11.484-6.5547 22.203-15.922 29.035l-32.652 23.805c-16.406 11.961-29.035 28.078-36.855 46.312v-7.0469c0-0.039063-0.003906-0.074219-0.003906-0.11328h0.003906v-10.102c0-17.445-9.4961-33.477-24.785-41.836l-28.102-15.359c-4.7188-2.5781-10.41-2.6836-15.223-0.27344-4.7773 2.3945-8.0117 6.7969-8.8711 12.082-0.85938 5.2891 0.82031 10.492 4.5977 14.277l15.195 15.227-3.2461 0.25c-6.6602 0.51172-13.367 0.16797-19.934-1.0312l-31.949-5.8203c-4.6797-0.84766-9.4727 0.40625-13.133 3.4609-3.668 3.0586-5.7695 7.5547-5.7695 12.336 0 5.7578 3.0898 11.098 8.0664 13.938 8.125 4.6328 16.648 8.7227 25.34 12.148 8.8477 3.4883 18.035 6.3555 27.309 8.5273 3.2188 0.75391 5.4648 3.5703 5.4648 6.8516l0.007812 26.344c0 2.4922 2.0234 4.5156 4.5156 4.5156s4.5156-2.0234 4.5156-4.5156v-26.332c0-7.5-5.1172-13.934-12.441-15.645-8.8477-2.0703-17.613-4.8086-26.055-8.1367-8.293-3.2695-16.426-7.168-24.176-11.59-2.1641-1.2344-3.5078-3.5703-3.5078-6.0938 0-2.0938 0.92188-4.0625 2.5234-5.4023 1.5977-1.332 3.6836-1.8789 5.7266-1.5078l31.949 5.8203c18.398 1.3438 35.895 1.0508 52.324-1.168 5.3633-0.41797 10.508 1.375 14.465 5.0391 3.9727 3.6797 6.1602 8.6914 6.1602 14.113v49.695c-0.003906 0.40234-0.007812 0.80469-0.007812 1.207 0 2.4922 2.0273 4.5156 4.5234 4.5156 2.4922 0 4.5156-2.0234 4.5156-4.5156v-1.1602c0.36719-32.207 16.074-62.684 42.176-81.715l32.652-23.805c10.359-7.5508 17.195-18.969 19.129-31.461 8.668 4.2852 18.438 7.1406 28.793 7.1406 10.352 0 20.121-2.8516 28.793-7.1406 1.9336 12.492 8.7695 23.906 19.129 31.461l32.652 23.805c26.129 19.047 41.844 49.57 42.176 81.82l0.003906 1.0547c0 2.4922 2.0273 4.5156 4.5234 4.5156 2.4922 0 4.5156-2.0234 4.5156-4.5156 0-0.36719-0.003907-0.73438-0.003907-1.1016v-49.805c0-5.4219 2.1875-10.434 6.1602-14.113 3.957-3.6641 9.0977-5.4531 14.465-5.0391l30.078 2.3164c7.4297 0.57422 14.914 0.1875 22.246-1.1484l31.949-5.8203c2.043-0.37109 4.1289 0.17578 5.7266 1.5078 1.6055 1.3398 2.5234 3.3086 2.5234 5.4023 0 2.5234-1.3438 4.8594-3.5078 6.0938-7.75 4.4219-15.883 8.3203-24.176 11.59-8.4414 3.3281-17.207 6.0664-26.055 8.1367-7.3242 1.7148-12.441 8.1484-12.441 15.645l-0.003906 26.336c0 2.4922 2.0234 4.5156 4.5156 4.5156 2.4922 0 4.5156-2.0234 4.5156-4.5156v-26.332c0-3.2812 2.2461-6.0977 5.4688-6.8516 9.2734-2.1719 18.461-5.0391 27.309-8.5273 8.6914-3.4258 17.219-7.5117 25.34-12.148 4.9727-2.8398 8.0664-8.1797 8.0664-13.938 0-4.7812-2.1055-9.2773-5.7734-12.336zm-248.19-59.898c-23.781 0-45.875-18.457-53.965-31.559-3.0352-4.9141-5.8398-12.465-8.1133-21.828-3.543-14.598-4.8477-30.188-3.8789-46.34 1.3945-23.215 5.9492-41.043 13.93-54.496 11.062-18.66 28.082-27.727 52.027-27.727 23.945 0 40.961 9.0703 52.027 27.727 7.9805 13.457 12.535 31.281 13.93 54.496 0.96875 16.148-0.33594 31.738-3.875 46.344-2.2734 9.3633-5.0781 16.91-8.1133 21.824-8.0938 13.105-30.188 31.559-53.969 31.559z"/>
  <path d="m344.91 213.09c58.633 0 106.34-47.797 106.34-106.55-0.003906-58.75-47.703-106.55-106.34-106.55-58.633 0-106.34 47.797-106.34 106.55s47.703 106.55 106.34 106.55zm0-204.06c53.652 0 97.301 43.746 97.301 97.516s-43.648 97.516-97.301 97.516-97.301-43.746-97.301-97.516 43.648-97.516 97.301-97.516z"/>
  <path d="m294 111.06h36.926c1.9102 5.9102 7.4531 10.203 13.984 10.203 8.1055 0 14.699-6.6016 14.699-14.719 0-6.5391-4.2812-12.086-10.18-14l-0.003907-57.422c0-2.4922-2.0234-4.5156-4.5156-4.5156-2.4922 0-4.5156 2.0234-4.5156 4.5156v57.422c-4.4805 1.4531-8.0195 5-9.4688 9.4844h-36.926c-2.4922 0-4.5156 2.0234-4.5156 4.5156s2.0234 4.5156 4.5156 4.5156z"/>
  <path d="m623.09 343.21c-0.45312-0.47266-1-0.83203-1.5938-1.0703 1.5781-4.3945 2.8359-9.8789 2.8359-16.223 0-5.4609-0.97266-13.801-5.6211-22.527-0.78516-1.4727-2.3164-2.3945-3.9883-2.3945h-162.9c-1.5859 0-3.0547 0.83203-3.8711 2.1914-0.81641 1.3594-0.85938 3.0469-0.11328 4.4453 2.082 3.9062 4.5625 10.25 4.5625 18.285 0 3.9297-0.625 9.6953-3.3945 15.891-2.0547-0.10156-3.9336 0.28516-5.543 1.4062-10.312 10.852-11.426 23.629-11.426 28.617 0 14.98 7.9883 25.004 11.426 28.621 0.85156 0.89453 2.0352 1.4062 3.2734 1.4062h173.09c1.2383 0 2.4219-0.50781 3.2734-1.4062 10.312-10.848 11.426-23.629 11.426-28.621-0.007813-14.988-7.9961-25.008-11.434-28.621zm-8.0586-12.777c-0.53516 4.5547-1.8008 8.4102-3.125 11.375h-153.19c1.4531-4.1523 2.168-8.0352 2.4844-11.375zm-60.82 62.391h-105.46c-3.0039-3.5977-7.6914-10.84-7.6914-20.992 0-3.6914 0.77734-12.832 7.6797-20.992h105.47zm63.594 0h-24.016v-41.984h24.004c3 3.5938 7.6914 10.836 7.6914 20.992 0 3.6914-0.77734 12.832-7.6797 20.992z"/>
  <path d="m121.72 400.71c3.9219-8.9805 10.59-13.223 19.832-14.168h9.6133c10.316-0.085937 16.633 5.1328 19.832 14.168 5.0586 10.141 15.234 16.441 26.555 16.441 16.367 0 29.688-13.34 29.688-29.738v-61.461c0-19.363-15.727-35.141-35.062-35.164-8 0-15.789 1.7188-23.16 5.1055-7.3477 3.3828-14.922 5.0977-22.516 5.0977l-0.26172-0.003906c-7.6445 0-15.152-1.6836-22.316-5.0078-9.25-4.293-17.82-5.1953-23.383-5.1953l-0.60938 0.003907c-18.996 0.21094-34.449 15.984-34.449 35.168v61.457c0 16.398 13.316 29.738 29.688 29.738 11.316 0 21.492-6.3008 26.551-16.441zm-47.207-13.297v-61.457c0-14.258 11.445-25.98 25.52-26.137l0.50781-0.003907c4.6523 0 11.824 0.75391 19.582 4.3555 8.3594 3.8828 17.148 5.8477 26.117 5.8477h0.26172c8.9062 0 17.75-1.9922 26.289-5.9219 6.1758-2.8398 12.695-4.2812 19.379-4.2812 14.355 0.019532 26.035 11.742 26.035 26.133v61.461c0 11.418-9.2656 20.707-20.656 20.707-7.8711 0-14.949-4.3867-18.473-11.441-4.1953-10.312-12.25-18.793-27.914-19.168h-9.6133c-13.449 0.66406-22.547 7.6328-27.914 19.168-3.5195 7.0586-10.602 11.445-18.473 11.445-11.383 0-20.648-9.2891-20.648-20.707z"/>
  <path d="m101.12 356.52c0 2.4922 2.0234 4.5156 4.5156 4.5156 2.4922 0 4.5156-2.0234 4.5156-4.5156v-10.789h10.758c2.4922 0 4.5156-2.0234 4.5156-4.5156s-2.0234-4.5156-4.5156-4.5156h-10.758v-10.789c0-2.4922-2.0234-4.5156-4.5156-4.5156-2.4922 0-4.5156 2.0234-4.5156 4.5156v10.789h-10.758c-2.4922 0-4.5156 2.0234-4.5156 4.5156s2.0234 4.5156 4.5156 4.5156h10.758z"/>
  <path d="m173.52 341.22c0 4.6953-3.8008 8.5039-8.4844 8.5039-4.6875 0-8.4844-3.8086-8.4844-8.5039s3.7969-8.5039 8.4844-8.5039c4.6836 0 8.4844 3.8086 8.4844 8.5039"/>
  <path d="m198.97 349.72c4.6875 0 8.4844-3.8086 8.4844-8.5039s-3.8008-8.5039-8.4844-8.5039-8.4844 3.8086-8.4844 8.5039 3.8008 8.5039 8.4844 8.5039z"/>
  <path d="m190.48 324.21c0 4.6953-3.7969 8.5-8.4844 8.5s-8.4844-3.8047-8.4844-8.5c0-4.6992 3.7969-8.5039 8.4844-8.5039s8.4844 3.8047 8.4844 8.5039"/>
  <path d="m190.48 358.22c0 4.6953-3.7969 8.5039-8.4844 8.5039s-8.4844-3.8086-8.4844-8.5039c0-4.6953 3.7969-8.5 8.4844-8.5s8.4844 3.8047 8.4844 8.5"/>
 </g>
</svg>
