<svg width="335" height="84" viewBox="0 0 335 84" fill="none" xmlns="http://www.w3.org/2000/svg">
<g filter="url(#filter0_d_1_13)">
<path d="M109.817 42V30.3636H111.226V40.75H116.635V42H109.817ZM124.417 42V30.3636H131.44V31.6136H125.826V35.5455H131.076V36.7955H125.826V40.75H131.531V42H124.417ZM140.057 42H138.579L142.852 30.3636H144.307L148.579 42H147.102L143.625 32.2045H143.534L140.057 42ZM140.602 37.4545H146.557V38.7045H140.602V37.4545ZM155.992 42V30.3636H159.924C160.833 30.3636 161.579 30.5189 162.162 30.8295C162.746 31.1364 163.178 31.5587 163.458 32.0966C163.738 32.6345 163.878 33.2462 163.878 33.9318C163.878 34.6174 163.738 35.2254 163.458 35.7557C163.178 36.286 162.748 36.7027 162.168 37.0057C161.588 37.3049 160.848 37.4545 159.946 37.4545H156.765V36.1818H159.901C160.522 36.1818 161.022 36.0909 161.401 35.9091C161.784 35.7273 162.06 35.4697 162.231 35.1364C162.405 34.7992 162.492 34.3977 162.492 33.9318C162.492 33.4659 162.405 33.0587 162.231 32.7102C162.056 32.3617 161.778 32.0928 161.395 31.9034C161.013 31.7102 160.507 31.6136 159.878 31.6136H157.401V42H155.992ZM161.469 36.7727L164.333 42H162.696L159.878 36.7727H161.469ZM181.054 30.3636V42H179.69L173.349 32.8636H173.235V42H171.826V30.3636H173.19L179.554 39.5227H179.667V30.3636H181.054ZM188.837 31.6136V30.3636H197.564V31.6136H193.905V42H192.496V31.6136H188.837ZM214.673 36.1818C214.673 37.4091 214.451 38.4697 214.008 39.3636C213.565 40.2576 212.957 40.947 212.184 41.4318C211.411 41.9167 210.529 42.1591 209.536 42.1591C208.544 42.1591 207.661 41.9167 206.888 41.4318C206.116 40.947 205.508 40.2576 205.065 39.3636C204.621 38.4697 204.4 37.4091 204.4 36.1818C204.4 34.9545 204.621 33.8939 205.065 33C205.508 32.1061 206.116 31.4167 206.888 30.9318C207.661 30.447 208.544 30.2045 209.536 30.2045C210.529 30.2045 211.411 30.447 212.184 30.9318C212.957 31.4167 213.565 32.1061 214.008 33C214.451 33.8939 214.673 34.9545 214.673 36.1818ZM213.309 36.1818C213.309 35.1742 213.14 34.3239 212.803 33.6307C212.47 32.9375 212.017 32.4129 211.445 32.0568C210.877 31.7008 210.241 31.5227 209.536 31.5227C208.832 31.5227 208.193 31.7008 207.621 32.0568C207.053 32.4129 206.601 32.9375 206.263 33.6307C205.93 34.3239 205.763 35.1742 205.763 36.1818C205.763 37.1894 205.93 38.0398 206.263 38.733C206.601 39.4261 207.053 39.9508 207.621 40.3068C208.193 40.6629 208.832 40.8409 209.536 40.8409C210.241 40.8409 210.877 40.6629 211.445 40.3068C212.017 39.9508 212.47 39.4261 212.803 38.733C213.14 38.0398 213.309 37.1894 213.309 36.1818ZM230.596 34C230.471 33.6174 230.307 33.2746 230.102 32.9716C229.901 32.6648 229.661 32.4034 229.381 32.1875C229.104 31.9716 228.79 31.8068 228.437 31.6932C228.085 31.5795 227.699 31.5227 227.278 31.5227C226.589 31.5227 225.962 31.7008 225.398 32.0568C224.833 32.4129 224.384 32.9375 224.051 33.6307C223.718 34.3239 223.551 35.1742 223.551 36.1818C223.551 37.1894 223.72 38.0398 224.057 38.733C224.394 39.4261 224.85 39.9508 225.426 40.3068C226.002 40.6629 226.649 40.8409 227.369 40.8409C228.036 40.8409 228.623 40.6989 229.131 40.4148C229.642 40.1269 230.04 39.7216 230.324 39.1989C230.612 38.6723 230.756 38.053 230.756 37.3409L231.187 37.4318H227.687V36.1818H232.119V37.4318C232.119 38.3902 231.915 39.2235 231.506 39.9318C231.1 40.6402 230.54 41.1894 229.824 41.5795C229.112 41.9659 228.293 42.1591 227.369 42.1591C226.339 42.1591 225.434 41.9167 224.653 41.4318C223.877 40.947 223.271 40.2576 222.835 39.3636C222.403 38.4697 222.187 37.4091 222.187 36.1818C222.187 35.2614 222.31 34.4337 222.557 33.6989C222.807 32.9602 223.159 32.3314 223.613 31.8125C224.068 31.2936 224.606 30.8958 225.227 30.6193C225.848 30.3428 226.532 30.2045 227.278 30.2045C227.892 30.2045 228.464 30.2973 228.994 30.483C229.528 30.6648 230.004 30.9242 230.42 31.2614C230.841 31.5947 231.191 31.9943 231.471 32.4602C231.752 32.9223 231.945 33.4356 232.051 34H230.596ZM240.133 42V30.3636H247.155V31.6136H241.542V35.5455H246.792V36.7955H241.542V40.75H247.246V42H240.133ZM254.659 31.6136V30.3636H263.386V31.6136H259.727V42H258.318V31.6136H254.659ZM271.161 42V30.3636H272.57V35.5455H278.774V30.3636H280.183V42H278.774V36.7955H272.57V42H271.161ZM288.604 42V30.3636H295.627V31.6136H290.013V35.5455H295.263V36.7955H290.013V40.75H295.718V42H288.604ZM303.767 42V30.3636H307.699C308.608 30.3636 309.354 30.5189 309.937 30.8295C310.521 31.1364 310.953 31.5587 311.233 32.0966C311.513 32.6345 311.653 33.2462 311.653 33.9318C311.653 34.6174 311.513 35.2254 311.233 35.7557C310.953 36.286 310.523 36.7027 309.943 37.0057C309.364 37.3049 308.623 37.4545 307.721 37.4545H304.54V36.1818H307.676C308.297 36.1818 308.797 36.0909 309.176 35.9091C309.559 35.7273 309.835 35.4697 310.006 35.1364C310.18 34.7992 310.267 34.3977 310.267 33.9318C310.267 33.4659 310.18 33.0587 310.006 32.7102C309.831 32.3617 309.553 32.0928 309.17 31.9034C308.788 31.7102 308.282 31.6136 307.653 31.6136H305.176V42H303.767ZM309.244 36.7727L312.108 42H310.471L307.653 36.7727H309.244Z" fill="white"/>
</g>
<path d="M86.2731 57.3772C85.6873 56.4583 84.9215 55.6636 84.0204 55.0397C83.1195 54.4158 82.1012 53.9752 81.0254 53.7435C76.9093 52.8001 73.3396 50.2894 71.0961 46.7601C68.8526 43.2307 68.118 38.9697 69.0525 34.9082C69.4119 33.3384 69.2925 31.699 68.7095 30.1958C68.1264 28.6926 67.1057 27.3927 65.7755 26.4594C64.4453 25.5261 62.8648 25.001 61.2327 24.9499C59.6006 24.8989 57.9897 25.3242 56.6021 26.1725C55.2144 27.0209 54.1122 28.2543 53.4335 29.718C52.755 31.1818 52.5303 32.8104 52.788 34.3995C53.0455 35.9886 53.7739 37.4673 54.8814 38.6498C55.9889 39.8323 57.4263 40.666 59.013 41.046C61.0658 41.5023 63.0069 42.3534 64.7252 43.5505C66.4435 44.7475 67.9052 46.2671 69.0265 48.0219C70.1477 49.7768 70.9065 51.7325 71.2593 53.7769C71.6123 55.8213 71.5522 57.9143 71.0827 59.9358C70.8046 61.239 70.8542 62.5894 71.2271 63.8693C71.6 65.1492 72.2849 66.3198 73.2221 67.2792C74.1593 68.2385 75.3202 68.9574 76.6039 69.3732C77.8876 69.789 79.2549 69.889 80.5868 69.6647C81.9189 69.4404 83.1749 68.8984 84.2456 68.0861C85.3163 67.2737 86.1691 66.2157 86.7298 65.0041C87.2904 63.7924 87.542 62.4641 87.4624 61.1348C87.3828 59.8054 86.9746 58.5154 86.2731 57.3772Z" fill="white"/>
<path d="M35.3295 48.3133C36.779 49.0928 38.4317 49.4278 40.0756 49.2752C41.7196 49.1226 43.2797 48.4894 44.556 47.4569C45.8323 46.4243 46.7665 45.0395 47.2385 43.4802C47.7107 41.9208 47.6992 40.258 47.2056 38.7051C46.5801 36.7249 46.3572 34.6426 46.5499 32.5774C46.7426 30.5122 47.3469 28.5048 48.3284 26.6703C49.3099 24.8358 50.6491 23.2102 52.2693 21.8867C53.8894 20.5632 55.7587 19.568 57.77 18.9579C59.3299 18.4764 60.7103 17.5509 61.7377 16.298C62.7651 15.0451 63.3935 13.5207 63.5438 11.9166C63.6942 10.3125 63.3597 8.7004 62.5826 7.2833C61.8054 5.8661 60.6202 4.7071 59.1763 3.9522C57.7322 3.1973 56.094 2.8801 54.4676 3.0407C52.8411 3.2012 51.2992 3.8322 50.0358 4.8544C48.7724 5.8765 47.844 7.2441 47.3674 8.785C46.8909 10.3259 46.8874 11.9713 47.3576 13.5141C48.5916 17.4971 48.1743 21.7998 46.197 25.4803C44.2197 29.1608 40.8434 31.9194 36.8071 33.1524C35.2137 33.6078 33.7957 34.524 32.7366 35.7826C31.6776 37.0412 31.0262 38.5841 30.867 40.2115C30.7079 41.839 31.0481 43.4761 31.8438 44.9108C32.6394 46.3456 33.8537 47.5119 35.3295 48.2588V48.3133Z" fill="white"/>
<path d="M56.6515 46.9794C55.5498 47.0175 54.467 47.2719 53.4663 47.7276C52.4656 48.1833 51.5673 48.8311 50.8238 49.6333C47.9395 52.6736 43.951 54.4648 39.7304 54.6153C35.5097 54.7658 31.4002 53.2632 28.3005 50.4362C27.4996 49.6956 26.5573 49.1193 25.5284 48.7408C24.4996 48.3623 23.4046 48.1892 22.3072 48.2315C20.9564 48.2943 19.6417 48.682 18.4779 49.3607C17.314 50.0394 16.3366 50.9885 15.6306 52.1251C14.9246 53.2618 14.5117 54.5515 14.4278 55.8816C14.344 57.2118 14.5917 58.5419 15.1495 59.756C15.7072 60.97 16.558 62.0311 17.6276 62.8466C18.6972 63.6621 19.953 64.2071 21.2855 64.4342C22.618 64.6613 23.9868 64.5636 25.2721 64.1495C26.5575 63.7354 27.7205 63.0176 28.6595 62.0586C30.088 60.5344 31.8075 59.3029 33.7197 58.4347C35.6319 57.5665 37.699 57.0785 39.8028 56.9989C41.9066 56.9193 44.0058 57.2494 45.9799 57.9705C47.954 58.6917 49.7643 59.7895 51.3072 61.2012C52.3117 62.0957 53.5232 62.7339 54.8359 63.0601C56.1486 63.3864 57.5223 63.3907 58.8371 63.0727C60.1518 62.7547 61.3673 62.1241 62.3776 61.236C63.3878 60.3479 64.1619 59.2293 64.6321 57.9782C65.1022 56.7271 65.2541 55.3816 65.0746 54.0592C64.895 52.7369 64.3893 51.4781 63.6018 50.3928C62.8144 49.3076 61.7693 48.4291 60.5576 47.834C59.3459 47.239 58.0048 46.9455 56.6515 46.9794Z" fill="white"/>
<defs>
<filter id="filter0_d_1_13" x="105.817" y="30.2045" width="210.291" height="19.9545" filterUnits="userSpaceOnUse" color-interpolation-filters="sRGB">
<feFlood flood-opacity="0" result="BackgroundImageFix"/>
<feColorMatrix in="SourceAlpha" type="matrix" values="0 0 0 0 0 0 0 0 0 0 0 0 0 0 0 0 0 0 127 0" result="hardAlpha"/>
<feOffset dy="4"/>
<feGaussianBlur stdDeviation="2"/>
<feComposite in2="hardAlpha" operator="out"/>
<feColorMatrix type="matrix" values="0 0 0 0 0 0 0 0 0 0 0 0 0 0 0 0 0 0 0.25 0"/>
<feBlend mode="normal" in2="BackgroundImageFix" result="effect1_dropShadow_1_13"/>
<feBlend mode="normal" in="SourceGraphic" in2="effect1_dropShadow_1_13" result="shape"/>
</filter>
</defs>
</svg>
