<?xml version="1.0" encoding="UTF-8"?>
<svg width="700pt" height="700pt" version="1.1" viewBox="0 0 700 700" xmlns="http://www.w3.org/2000/svg">
 <g>
  <path d="m524.98 157.45c-3.375 0.003907-6.6758 0.98047-9.5078 2.8125-2.832 1.8359-5.0742 4.4492-6.4531 7.5273l-2.6992 6-6 2.6992c-4.1211 1.8555-7.3672 5.2344-9.0586 9.4258-1.6875 4.1953-1.6875 8.8789 0 13.074 1.6914 4.1914 4.9375 7.5703 9.0586 9.4258l6 2.6992 2.6992 6v-0.003906c1.8555 4.125 5.2305 7.3711 9.4258 9.0586 4.1914 1.6875 8.8789 1.6875 13.07 0 4.1953-1.6875 7.5742-4.9336 9.4258-9.0586l2.6992-6 6-2.6992v0.003906c4.125-1.8555 7.3672-5.2344 9.0586-9.4258 1.6875-4.1953 1.6875-8.8789 0-13.074-1.6914-4.1914-4.9336-7.5703-9.0586-9.4258l-6-2.6992-2.6992-6c-1.3789-3.0781-3.6211-5.6914-6.4531-7.5273-2.832-1.8359-6.1328-2.8125-9.5078-2.8125z"/>
  <path d="m297.45 297.56c-67.445 0-122.46 55.016-122.46 122.46v17.438c0 28.785 23.789 52.578 52.578 52.578h104.89c4.668 0.019531 9.1445-1.8242 12.445-5.125 3.2969-3.2969 5.1406-7.7773 5.125-12.441-0.015626-4.6445-1.8789-9.0898-5.1719-12.359-3.2969-3.2734-7.7539-5.0977-12.398-5.082h-104.89c-9.8711 0-17.566-7.6953-17.566-17.57v-17.438c0-48.531 38.922-87.586 87.457-87.586h105.02c48.531 0 87.586 39.055 87.586 87.586v17.438c0 9.8711-7.6953 17.57-17.566 17.57h-17.445c-4.6445-0.015625-9.1016 1.8086-12.398 5.082-3.293 3.2695-5.1523 7.7148-5.1719 12.359-0.015624 4.6641 1.8281 9.1445 5.1289 12.441 3.2969 3.3008 7.7773 5.1445 12.441 5.125h17.441c28.785 0 52.445-23.789 52.445-52.578v-17.438c0-67.445-55.016-122.46-122.46-122.46zm105.02 157.47c-4.6172 0.015625-9.0469 1.8594-12.312 5.125-3.2656 3.2695-5.1094 7.6953-5.125 12.316-0.019531 4.6406 1.8086 9.1016 5.0781 12.395 3.2734 3.2969 7.7188 5.1562 12.359 5.1719 4.668 0.019531 9.1445-1.8242 12.445-5.125 3.2969-3.2969 5.1445-7.7773 5.125-12.441-0.015624-4.6445-1.875-9.0898-5.1719-12.359-3.293-3.2734-7.7539-5.0977-12.398-5.082z"/>
  <path d="m350.02 69.945c-57.781 0-105.02 47.242-105.02 105.02s47.242 105.02 105.02 105.02 105.02-47.242 105.02-105.02-47.242-105.02-105.02-105.02zm0 35.008c38.867 0 70.016 31.148 70.016 70.016s-31.148 70.016-70.016 70.016c-38.867 0-70.016-31.148-70.016-70.016s31.148-70.016 70.016-70.016z"/>
  <path d="m183.73 80.777c-3.375-0.003906-6.6797 0.97266-9.5117 2.8047-2.8359 1.832-5.0781 4.4453-6.4609 7.5234l-5.4102 12.047-12.047 5.4102v0.003906c-4.1328 1.8516-7.3828 5.2305-9.0742 9.4258-1.6953 4.1992-1.6953 8.8906 0 13.086 1.6914 4.1992 4.9414 7.5781 9.0742 9.4297l12.047 5.4102 5.4102 12.047c1.8516 4.1289 5.2305 7.3828 9.4297 9.0742 4.1953 1.6953 8.8867 1.6953 13.086 0 4.1953-1.6914 7.5742-4.9453 9.4258-9.0742l5.4102-12.047 12.047-5.4102c4.1328-1.8516 7.3867-5.2305 9.0781-9.4297 1.6914-4.1953 1.6914-8.8867 0-13.086-1.6914-4.1953-4.9453-7.5742-9.0781-9.4258l-12.047-5.4102-5.4102-12.047v-0.003906c-1.3828-3.0781-3.625-5.6875-6.4609-7.5234-2.832-1.832-6.1367-2.8047-9.5117-2.8047z"/>
  <path d="m192.48 249.32c-5.168 0-9.8594 3.0273-11.98 7.7422l-3.3672 7.5352-7.5352 3.3672v0.003906c-4.7227 2.1133-7.7617 6.8047-7.7617 11.977 0 5.1758 3.0391 9.8672 7.7617 11.98l7.5352 3.3672 3.3672 7.5352c2.1172 4.7227 6.8086 7.7617 11.98 7.7617 5.1758 0 9.8672-3.0391 11.98-7.7617l3.3672-7.5352 7.5352-3.3672c4.7227-2.1133 7.7617-6.8047 7.7617-11.98 0-5.1719-3.0391-9.8633-7.7617-11.977l-7.5352-3.3672-3.3672-7.5352v-0.003906c-2.1211-4.7109-6.8125-7.7422-11.98-7.7383z"/>
 </g>
</svg>
